<?xml version="1.0" standalone="no"?>
<!DOCTYPE svg PUBLIC "-//W3C//DTD SVG 20010904//EN"
 "http://www.w3.org/TR/2001/REC-SVG-20010904/DTD/svg10.dtd">
<svg version="1.0" xmlns="http://www.w3.org/2000/svg"
 width="1242.000000pt" height="1108.000000pt" viewBox="0 0 1242.000000 1108.000000"
 preserveAspectRatio="xMidYMid meet">

<g transform="translate(0.000000,1108.000000) scale(0.100000,-0.100000)"
fill="#000000" stroke="none">
<path d="M12240 5540 l0 -5540 45 0 45 0 0 5540 0 5540 -45 0 -45 0 0 -5540z"/>
<path d="M4527 10273 c-9 -14 -107 -276 -107 -285 0 -4 11 -8 24 -8 19 0 27 8
36 35 11 35 12 35 70 35 58 0 59 0 70 -35 9 -27 17 -35 36 -35 13 0 24 3 24 8
0 4 -24 70 -53 147 -43 114 -57 141 -74 143 -12 2 -23 0 -26 -5z m46 -122 c9
-27 17 -51 17 -55 0 -3 -18 -6 -40 -6 -22 0 -40 4 -40 8 0 17 32 102 39 102 3
0 14 -22 24 -49z"/>
<path d="M5234 10268 c-20 -9 -44 -47 -44 -68 0 -20 45 -10 55 13 12 26 62 31
78 6 17 -28 -1 -64 -68 -137 -90 -97 -89 -102 35 -102 93 0 100 1 100 20 0 18
-7 20 -66 20 l-66 0 50 58 c81 94 91 134 47 177 -26 27 -81 33 -121 13z"/>
<path d="M5513 10264 c-40 -20 -61 -52 -72 -109 -19 -102 20 -175 95 -175 35
0 47 5 68 31 63 75 -2 192 -88 159 -20 -7 -26 -6 -26 3 0 22 40 57 71 64 20 4
29 12 29 24 0 24 -32 25 -77 3z m49 -141 c20 -18 24 -73 6 -91 -16 -16 -53
-15 -67 1 -6 8 -14 28 -17 44 -5 25 -1 34 17 47 29 20 38 20 61 -1z"/>
<path d="M5914 10268 c-20 -9 -44 -47 -44 -68 0 -20 45 -10 55 13 12 26 62 31
78 6 17 -28 -1 -64 -68 -137 -90 -97 -89 -102 35 -102 93 0 100 1 100 20 0 18
-7 20 -66 20 l-66 0 50 58 c81 94 91 134 47 177 -26 27 -81 33 -121 13z"/>
<path d="M6153 10265 c-56 -39 -55 -231 0 -270 22 -15 73 -20 102 -9 30 12 48
65 49 144 0 107 -26 149 -94 150 -20 0 -45 -7 -57 -15z m91 -47 c18 -26 22
-131 6 -172 -7 -20 -16 -26 -40 -26 -38 0 -50 27 -50 110 0 78 13 110 44 110
14 0 31 -9 40 -22z"/>
<path d="M6385 10268 c-47 -27 -61 -78 -22 -78 14 0 26 9 32 23 12 26 62 31
78 6 17 -27 0 -62 -68 -137 -36 -40 -65 -79 -65 -87 0 -12 19 -15 100 -15 93
0 100 1 100 20 0 18 -7 20 -66 20 l-66 0 50 58 c81 94 91 134 47 177 -27 28
-84 33 -120 13z"/>
<path d="M6653 10258 c-39 -15 -53 -26 -53 -40 0 -19 8 -19 58 -1 9 4 12 -23
12 -116 l0 -121 25 0 25 0 0 150 c0 83 -3 150 -7 149 -5 0 -32 -10 -60 -21z"/>
<path d="M7817 10273 c-9 -14 -107 -276 -107 -285 0 -4 11 -8 24 -8 19 0 27 8
36 35 11 35 12 35 70 35 58 0 59 0 70 -35 9 -27 17 -35 36 -35 13 0 24 3 24 8
0 4 -24 70 -53 147 -43 113 -57 141 -74 143 -12 2 -23 0 -26 -5z m38 -100 c33
-78 32 -83 -14 -83 -23 0 -41 3 -41 7 0 10 33 113 37 113 1 0 10 -17 18 -37z"/>
<path d="M8525 10268 c-47 -27 -61 -78 -22 -78 14 0 26 9 32 23 12 26 62 31
78 6 17 -28 -1 -64 -68 -137 -90 -97 -89 -102 35 -102 93 0 100 1 100 20 0 18
-7 20 -66 20 l-66 0 44 51 c86 101 98 140 53 184 -27 28 -84 33 -120 13z"/>
<path d="M8803 10264 c-18 -9 -39 -27 -48 -41 -22 -33 -34 -117 -24 -162 18
-79 104 -107 160 -52 70 71 5 195 -85 161 -20 -7 -26 -6 -26 3 0 22 40 57 71
64 20 4 29 12 29 24 0 24 -32 25 -77 3z m49 -141 c20 -18 24 -73 6 -91 -16
-16 -53 -15 -66 1 -23 27 -24 65 -3 86 25 25 39 26 63 4z"/>
<path d="M9204 10268 c-20 -9 -44 -47 -44 -68 0 -20 45 -10 55 13 12 26 62 31
78 6 17 -28 -1 -64 -68 -137 -90 -97 -89 -102 35 -102 93 0 100 1 100 20 0 18
-7 20 -66 20 l-66 0 50 58 c81 94 91 134 47 177 -26 27 -81 33 -121 13z"/>
<path d="M9433 10265 c-40 -28 -54 -123 -32 -211 14 -53 40 -74 90 -74 54 0
77 25 90 94 15 85 -1 163 -40 193 -22 17 -82 16 -108 -2z m91 -47 c18 -26 22
-131 6 -172 -7 -20 -16 -26 -40 -26 -38 0 -50 27 -50 110 0 78 13 110 44 110
14 0 31 -9 40 -22z"/>
<path d="M9674 10268 c-20 -9 -44 -47 -44 -68 0 -20 45 -10 55 13 12 26 62 31
78 6 17 -28 -1 -64 -68 -137 -90 -97 -89 -102 35 -102 93 0 100 1 100 20 0 18
-7 20 -66 20 l-66 0 50 58 c81 94 91 134 47 177 -26 27 -81 33 -121 13z"/>
<path d="M9943 10258 c-39 -15 -53 -26 -53 -40 0 -19 8 -19 58 -1 9 4 12 -23
12 -116 l0 -121 25 0 25 0 0 150 c0 83 -3 150 -7 149 -5 0 -32 -10 -60 -21z"/>
<path d="M4710 10050 c0 -143 1 -150 20 -150 17 0 20 7 20 45 l0 45 45 -7 c36
-4 50 -2 65 12 46 42 50 145 8 185 -24 22 -87 27 -106 8 -9 -9 -12 -9 -12 0 0
7 -9 12 -20 12 -19 0 -20 -7 -20 -150z m128 92 c15 -19 16 -76 2 -103 -12 -22
-59 -26 -78 -7 -7 7 -12 33 -12 59 0 37 5 51 21 63 23 16 47 12 67 -12z"/>
<path d="M4950 10090 c0 -103 1 -110 20 -110 17 0 19 8 22 78 3 76 3 77 35 92
39 18 45 50 10 50 -13 0 -28 -5 -35 -12 -9 -9 -12 -9 -12 0 0 7 -9 12 -20 12
-19 0 -20 -7 -20 -110z"/>
<path d="M8000 10050 c0 -143 1 -150 20 -150 17 0 20 7 20 45 l0 45 45 -7 c36
-4 50 -2 65 12 46 42 50 145 8 185 -24 22 -87 27 -106 8 -9 -9 -12 -9 -12 0 0
7 -9 12 -20 12 -19 0 -20 -7 -20 -150z m128 92 c15 -19 16 -76 2 -103 -12 -22
-59 -26 -78 -7 -7 7 -12 33 -12 59 0 37 5 51 21 63 23 16 47 12 67 -12z"/>
<path d="M8240 10090 c0 -103 1 -110 20 -110 17 0 19 8 22 78 3 76 3 77 35 92
39 18 45 50 10 50 -13 0 -28 -5 -35 -12 -9 -9 -12 -9 -12 0 0 7 -9 12 -20 12
-19 0 -20 -7 -20 -110z"/>
<path d="M5677 9998 c-3 -18 -8 -43 -12 -55 -6 -17 -3 -23 8 -23 23 0 47 40
47 77 0 26 -4 33 -19 33 -14 0 -20 -9 -24 -32z"/>
<path d="M8967 9998 c-4 -18 -9 -43 -13 -55 -9 -31 19 -31 40 -1 23 33 21 88
-3 88 -13 0 -20 -10 -24 -32z"/>
<path d="M10260 8645 c0 -14 -6 -25 -14 -25 -7 0 -25 -9 -40 -21 -20 -15 -26
-29 -26 -58 0 -49 18 -72 79 -101 35 -16 53 -31 57 -47 14 -56 -68 -74 -94
-20 -12 25 -45 37 -56 19 -10 -17 25 -74 53 -85 18 -6 31 -19 33 -32 4 -27 32
-26 36 3 2 12 10 22 18 22 28 0 64 47 64 83 0 44 -15 62 -80 94 -39 20 -56 35
-58 51 -8 55 61 74 81 22 8 -21 18 -30 34 -30 41 0 19 71 -29 92 -19 9 -28 20
-28 35 0 14 -6 23 -15 23 -9 0 -15 -9 -15 -25z"/>
<path d="M1468 8620 c-20 -16 -28 -30 -28 -54 0 -40 19 -59 84 -83 85 -31 90
-85 9 -91 -34 -3 -44 1 -61 22 -30 39 -52 33 -36 -9 14 -37 110 -59 154 -35
47 25 41 102 -10 126 -114 52 -127 65 -95 98 25 24 70 20 93 -9 23 -30 42 -32
42 -7 0 52 -104 81 -152 42z"/>
<path d="M1670 8526 c0 -109 1 -114 26 -140 36 -35 101 -36 141 -2 28 24 28
26 28 137 0 100 -2 114 -17 117 -16 3 -18 -7 -18 -107 0 -124 -8 -141 -65
-141 -54 0 -65 26 -65 147 0 85 -3 103 -15 103 -12 0 -15 -19 -15 -114z"/>
<path d="M1920 8501 l0 -141 61 0 c62 0 95 11 116 39 19 25 15 62 -9 89 -21
22 -22 24 -5 33 23 14 23 71 -2 93 -12 11 -44 19 -90 23 l-71 6 0 -142z m134
93 c35 -34 6 -74 -55 -74 l-39 0 0 45 0 45 39 0 c23 0 46 -7 55 -16z m4 -116
c7 -7 12 -24 12 -38 0 -37 -18 -50 -67 -50 l-43 0 0 50 0 50 43 0 c24 0 48 -5
55 -12z"/>
<path d="M2188 8620 c-20 -16 -28 -30 -28 -54 0 -40 19 -59 84 -83 85 -31 90
-85 9 -91 -34 -3 -44 1 -61 22 -30 39 -52 33 -36 -9 17 -42 123 -60 163 -27
33 26 31 79 -3 109 -15 12 -35 23 -44 23 -25 0 -82 38 -82 54 0 47 76 62 108
21 23 -30 42 -32 42 -7 0 52 -104 81 -152 42z"/>
<path d="M2440 8623 c-32 -22 -38 -30 -51 -76 -15 -56 -2 -122 31 -157 38 -41
105 -43 144 -4 27 28 35 64 14 64 -7 0 -21 -14 -30 -30 -14 -24 -24 -30 -52
-30 -51 0 -76 36 -76 110 0 70 25 110 71 110 28 0 69 -30 69 -50 0 -5 7 -10
15 -10 26 0 17 37 -16 64 -36 30 -83 34 -119 9z"/>
<path d="M2658 8634 c-5 -4 -8 -67 -8 -141 0 -126 1 -133 20 -133 18 0 20 7
20 55 l0 55 33 0 c29 0 36 -6 62 -55 19 -35 37 -55 48 -55 15 0 14 7 -12 58
l-29 57 24 28 c30 35 31 68 2 102 -19 21 -35 27 -88 31 -36 4 -68 3 -72 -2z
m116 -34 c21 -8 26 -16 26 -44 0 -41 -20 -56 -74 -56 l-36 0 0 55 c0 54 0 55
29 55 16 0 41 -4 55 -10z"/>
<path d="M2900 8500 c0 -118 2 -140 15 -140 13 0 15 22 15 140 0 118 -2 140
-15 140 -13 0 -15 -22 -15 -140z"/>
<path d="M2998 8634 c-5 -4 -8 -67 -8 -141 0 -126 1 -133 20 -133 18 0 20 7
20 55 l0 55 55 0 c46 0 60 4 80 25 32 31 32 75 3 110 -19 22 -34 27 -93 32
-38 3 -73 2 -77 -3z m144 -42 c14 -14 13 -59 -2 -77 -8 -10 -30 -15 -61 -15
l-49 0 0 56 0 57 51 -5 c27 -3 55 -10 61 -16z"/>
<path d="M3220 8625 c0 -11 12 -15 45 -15 l45 0 0 -125 c0 -103 3 -125 15
-125 12 0 15 23 17 123 l3 122 43 3 c28 2 42 8 42 18 0 11 -20 14 -105 14 -87
0 -105 -3 -105 -15z"/>
<path d="M3480 8500 c0 -118 2 -140 15 -140 13 0 15 22 15 140 0 118 -2 140
-15 140 -13 0 -15 -22 -15 -140z"/>
<path d="M3628 8623 c-65 -41 -73 -179 -13 -239 43 -43 138 -25 163 31 7 14
12 55 12 91 0 62 -2 68 -34 100 -39 39 -83 45 -128 17z m102 -33 c25 -25 34
-60 27 -116 -6 -56 -30 -84 -73 -84 -53 0 -77 39 -72 119 3 52 8 67 27 82 30
25 66 24 91 -1z"/>
<path d="M3857 8633 c-4 -3 -7 -66 -7 -140 0 -126 1 -133 20 -133 19 0 20 7
20 106 l0 106 70 -106 c38 -58 76 -106 85 -106 13 0 15 22 15 140 0 116 -2
140 -15 140 -11 0 -15 -21 -17 -107 l-3 -108 -69 108 c-63 99 -82 118 -99 100z"/>
<path d="M4147 8620 c-23 -18 -28 -29 -25 -59 3 -34 7 -38 73 -71 71 -35 88
-58 65 -85 -7 -9 -29 -15 -50 -15 -29 0 -43 6 -58 25 -11 14 -25 25 -31 25
-19 0 -12 -30 14 -55 45 -46 149 -28 168 28 13 36 -11 66 -80 99 -57 28 -68
37 -68 58 0 46 96 55 110 10 8 -25 35 -26 35 -2 0 29 -35 54 -82 59 -34 4 -49
0 -71 -17z"/>
<path d="M10516 8568 c-18 -29 -49 -79 -69 -111 -53 -82 -51 -87 33 -87 l70 0
0 -35 c0 -31 3 -35 25 -35 22 0 25 4 25 35 0 28 4 35 20 35 13 0 20 7 20 19 0
10 -9 21 -20 24 -18 5 -20 14 -20 106 l0 101 -25 0 c-20 0 -33 -12 -59 -52z
m34 -93 l0 -65 -41 0 c-22 0 -39 3 -37 8 6 14 73 122 75 122 2 0 3 -29 3 -65z"/>
<path d="M10712 8600 c-55 -51 -56 -218 -1 -276 16 -17 33 -24 61 -24 80 0
108 42 108 165 0 81 -16 127 -49 145 -33 17 -95 12 -119 -10z m102 -42 c11
-16 16 -46 16 -98 0 -85 -16 -120 -55 -120 -35 0 -45 27 -45 120 0 45 5 90 10
101 14 26 55 24 74 -3z"/>
<path d="M11099 8607 c-57 -44 -64 -215 -12 -277 20 -24 33 -30 65 -30 80 0
108 42 108 165 0 81 -16 127 -49 145 -27 14 -92 12 -112 -3z m95 -49 c11 -16
16 -46 16 -98 0 -85 -16 -120 -55 -120 -35 0 -45 27 -45 120 0 45 5 90 10 101
14 26 55 24 74 -3z"/>
<path d="M11352 8600 c-38 -35 -51 -116 -33 -208 12 -60 44 -92 93 -92 80 0
108 42 108 165 0 81 -16 127 -49 145 -33 17 -95 12 -119 -10z m102 -42 c11
-16 16 -46 16 -98 0 -85 -16 -120 -55 -120 -35 0 -45 27 -45 120 0 45 5 90 10
101 14 26 55 24 74 -3z"/>
<path d="M1026 8563 c8 -8 21 -12 29 -9 26 9 16 25 -14 24 -26 -1 -28 -3 -15
-15z"/>
<path d="M1038 8530 c-15 -4 -30 -5 -34 -1 -4 3 -4 1 0 -6 3 -6 15 -10 26 -8
11 2 20 -1 20 -6 0 -6 5 -7 10 -4 6 4 8 10 5 15 -3 4 1 11 7 13 20 8 -4 6 -34
-3z"/>
<path d="M1023 8454 c-8 -8 -9 -15 -3 -19 6 -3 10 -2 10 3 0 6 9 8 20 5 14 -4
20 0 20 11 0 9 -4 16 -10 16 -5 0 -10 -6 -10 -12 0 -10 -2 -10 -8 -2 -5 9 -10
8 -19 -2z"/>
<path d="M10944 8335 c-4 -9 -2 -21 4 -27 16 -16 47 -5 47 17 0 26 -42 34 -51
10z"/>
<path d="M10030 7480 c0 -12 -12 -26 -30 -35 -35 -18 -50 -43 -50 -84 0 -39
25 -64 90 -92 61 -26 77 -61 40 -91 -39 -31 -100 -14 -100 28 0 8 -9 14 -20
14 -13 0 -20 -7 -20 -20 0 -24 42 -70 65 -70 8 0 15 -9 15 -20 0 -11 7 -20 15
-20 8 0 15 9 15 20 0 13 7 20 18 20 26 0 59 34 67 70 10 44 -14 74 -82 107
-51 24 -58 32 -61 60 -6 61 76 72 96 13 14 -37 42 -40 42 -5 0 26 -39 75 -60
75 -5 0 -10 11 -10 25 0 16 -6 25 -15 25 -8 0 -15 -9 -15 -20z"/>
<path d="M10223 7435 c-50 -35 -50 -145 0 -180 28 -20 76 -19 99 2 17 15 18
15 18 -1 0 -39 -30 -75 -70 -86 -25 -7 -40 -17 -40 -26 0 -13 7 -15 36 -9 21
3 47 13 60 21 70 46 73 247 5 284 -29 15 -83 12 -108 -5z m97 -35 c30 -30 27
-95 -5 -116 -34 -22 -69 -11 -85 25 -31 77 36 145 90 91z"/>
<path d="M10513 7429 c-38 -15 -53 -26 -53 -39 0 -18 2 -18 35 -4 19 7 37 14
40 14 3 0 5 -61 5 -135 0 -128 1 -135 20 -135 19 0 20 7 20 160 0 88 -3 160
-7 159 -5 0 -32 -9 -60 -20z"/>
<path d="M10726 7428 c-13 -13 -27 -33 -31 -45 -10 -35 26 -29 47 7 31 54 108
33 108 -30 0 -20 -20 -50 -75 -113 -41 -48 -75 -93 -75 -102 0 -12 17 -15 105
-15 85 0 105 3 105 15 0 11 -18 15 -81 17 l-81 3 56 63 c91 102 107 152 61
197 -33 34 -103 35 -139 3z"/>
<path d="M11101 7428 c-27 -28 -34 -69 -30 -167 4 -67 8 -83 28 -105 26 -28
84 -36 120 -16 29 15 46 70 46 150 0 80 -17 135 -46 150 -33 18 -97 12 -118
-12z m103 -27 c33 -36 33 -193 0 -226 -23 -23 -61 -18 -80 9 -11 18 -16 48
-16 106 0 58 5 88 16 106 20 29 56 32 80 5z"/>
<path d="M11349 7424 c-22 -24 -24 -33 -24 -134 0 -101 2 -110 24 -134 26 -28
84 -36 120 -16 29 15 46 70 46 150 0 80 -17 135 -46 150 -36 20 -94 12 -120
-16z m107 -25 c16 -17 19 -37 19 -109 0 -97 -16 -130 -61 -130 -39 0 -54 35
-54 130 0 95 15 130 54 130 13 0 31 -9 42 -21z"/>
<path d="M10954 7159 c-9 -15 12 -33 30 -26 9 4 16 13 16 22 0 17 -35 21 -46
4z"/>
<path d="M10540 6310 c0 -12 -12 -26 -30 -35 -35 -18 -50 -43 -50 -84 0 -39
25 -64 90 -92 61 -26 77 -61 40 -91 -38 -30 -100 -17 -100 22 0 13 -7 20 -20
20 -13 0 -20 -7 -20 -20 0 -24 42 -70 65 -70 8 0 15 -9 15 -20 0 -11 7 -20 15
-20 8 0 15 7 15 15 0 8 15 21 34 30 39 19 60 60 51 98 -8 32 -23 45 -89 77
-46 23 -51 28 -51 59 0 40 21 57 57 48 17 -5 30 -18 36 -37 14 -37 42 -40 42
-5 0 26 -39 75 -60 75 -5 0 -10 11 -10 25 0 16 -6 25 -15 25 -8 0 -15 -9 -15
-20z"/>
<path d="M10729 6254 c-22 -24 -24 -33 -24 -134 0 -101 2 -110 24 -134 26 -28
84 -36 120 -16 29 15 46 70 46 150 0 80 -17 135 -46 150 -36 20 -94 12 -120
-16z m107 -25 c16 -17 19 -37 19 -109 0 -72 -3 -92 -19 -109 -25 -28 -62 -27
-81 2 -22 34 -22 179 -1 212 20 31 56 32 82 4z"/>
<path d="M11114 6272 c-34 -24 -44 -58 -44 -153 0 -90 2 -100 26 -128 21 -25
33 -31 66 -31 21 0 47 4 57 10 29 15 46 70 46 150 0 80 -17 135 -46 150 -21
12 -89 13 -105 2z m92 -43 c16 -17 19 -37 19 -109 0 -97 -16 -130 -61 -130
-39 0 -54 35 -54 130 0 95 15 130 54 130 13 0 31 -9 42 -21z"/>
<path d="M11345 6248 c-26 -30 -27 -35 -23 -134 3 -92 5 -105 27 -128 25 -26
76 -35 116 -20 62 24 72 237 14 295 -13 13 -33 19 -63 19 -37 0 -48 -5 -71
-32z m111 -19 c16 -17 19 -37 19 -109 0 -72 -3 -92 -19 -109 -26 -28 -62 -27
-82 4 -23 35 -23 175 0 210 20 31 56 33 82 4z"/>
<path d="M10956 5992 c-9 -14 12 -35 28 -29 23 9 20 37 -3 37 -11 0 -22 -4
-25 -8z"/>
<path d="M9780 5140 c0 -12 -12 -26 -30 -35 -34 -18 -50 -43 -50 -80 0 -42 15
-59 79 -90 64 -30 79 -51 61 -85 -22 -41 -95 -37 -106 6 -8 30 -44 34 -44 4 0
-24 42 -70 65 -70 8 0 15 -9 15 -20 0 -11 7 -20 15 -20 8 0 15 7 15 15 0 8 16
22 35 31 26 12 38 26 46 55 16 52 -4 81 -79 117 -50 24 -57 31 -60 59 -6 61
76 72 96 13 14 -37 42 -40 42 -5 0 26 -39 75 -60 75 -5 0 -10 11 -10 25 0 16
-6 25 -15 25 -8 0 -15 -9 -15 -20z"/>
<path d="M10003 5088 c-31 -12 -53 -27 -53 -35 0 -15 20 -14 64 3 14 5 16 -10
16 -130 0 -129 1 -136 20 -136 19 0 20 7 20 160 0 88 -3 160 -7 159 -5 0 -32
-10 -60 -21z"/>
<path d="M10270 5093 c-46 -24 -71 -71 -77 -147 -8 -98 28 -155 99 -156 53 0
89 33 95 90 8 83 -52 137 -122 110 -15 -6 -29 -9 -31 -7 -2 2 4 19 14 38 13
26 28 37 60 48 43 13 52 34 16 39 -10 1 -35 -6 -54 -15z m43 -134 c29 -16 37
-28 37 -64 0 -40 -25 -75 -55 -75 -43 0 -83 79 -57 116 6 9 41 33 50 34 2 0
13 -5 25 -11z"/>
<path d="M10480 5085 c-28 -30 -32 -85 -8 -112 15 -17 15 -20 -3 -42 -27 -33
-25 -86 6 -116 33 -34 103 -35 141 -1 35 30 38 84 7 118 -21 23 -21 23 -2 47
23 28 24 52 4 90 -17 33 -33 41 -84 41 -27 0 -44 -7 -61 -25z m104 -21 c22
-21 20 -57 -3 -78 -26 -24 -62 -17 -80 15 -13 24 -13 29 2 53 20 30 57 35 81
10z m-4 -134 c26 -14 34 -57 15 -86 -29 -45 -107 -24 -107 30 0 51 47 80 92
56z"/>
<path d="M10737 5096 c-30 -23 -41 -70 -22 -105 8 -17 20 -31 25 -31 5 0 -2
-11 -15 -25 -17 -16 -25 -35 -25 -60 0 -53 36 -85 94 -85 61 0 100 33 100 83
0 23 -8 45 -21 59 -21 23 -21 23 -2 47 29 36 21 87 -20 118 -21 16 -92 16
-114 -1z m95 -33 c23 -21 23 -55 -1 -77 -26 -24 -62 -17 -80 15 -13 24 -13 29
2 53 20 30 52 34 79 9z m-1 -136 c45 -34 24 -107 -29 -107 -39 0 -64 21 -64
54 0 52 54 83 93 53z"/>
<path d="M11095 5078 c-26 -30 -27 -35 -23 -134 3 -92 5 -105 27 -128 25 -26
76 -35 116 -20 63 24 72 257 12 299 -12 8 -40 15 -63 15 -35 0 -47 -5 -69 -32z
m111 -19 c16 -17 19 -37 19 -109 0 -72 -3 -92 -19 -109 -26 -29 -62 -27 -82 5
-23 34 -22 175 1 210 19 30 55 31 81 3z"/>
<path d="M11349 5084 c-22 -24 -24 -33 -24 -134 0 -101 2 -110 24 -134 25 -26
76 -35 116 -20 62 24 72 237 14 295 -30 30 -99 26 -130 -7z m107 -25 c16 -17
19 -37 19 -109 0 -72 -3 -92 -19 -109 -26 -29 -62 -27 -82 4 -22 34 -22 176 0
211 20 30 56 31 82 3z"/>
<path d="M10956 4822 c-9 -14 12 -35 28 -29 23 9 20 37 -3 37 -11 0 -22 -4
-25 -8z"/>
<path d="M10540 3970 c0 -12 -12 -26 -30 -35 -35 -18 -50 -43 -50 -84 0 -39
25 -64 89 -92 54 -23 69 -46 51 -79 -22 -41 -95 -37 -106 6 -8 30 -44 34 -44
4 0 -24 42 -70 65 -70 8 0 15 -9 15 -19 0 -30 19 -35 29 -8 5 13 23 29 39 36
35 15 56 57 47 94 -8 32 -23 45 -89 77 -44 21 -51 30 -54 57 -6 61 76 72 96
13 14 -37 42 -40 42 -5 0 26 -39 75 -60 75 -5 0 -10 11 -10 25 0 16 -6 25 -15
25 -8 0 -15 -9 -15 -20z"/>
<path d="M10725 3908 c-26 -30 -27 -35 -23 -134 3 -92 5 -105 27 -128 31 -33
100 -37 130 -7 39 39 52 140 30 227 -14 54 -40 74 -95 74 -35 0 -47 -5 -69
-32z m111 -19 c16 -17 19 -37 19 -109 0 -72 -3 -92 -19 -109 -26 -29 -62 -27
-82 5 -24 36 -22 188 2 215 23 25 56 24 80 -2z"/>
<path d="M11102 3920 c-30 -28 -35 -54 -31 -159 4 -78 7 -93 28 -115 25 -26
76 -35 116 -20 61 24 71 249 14 297 -30 24 -99 23 -127 -3z m104 -31 c16 -17
19 -37 19 -109 0 -72 -3 -92 -19 -109 -26 -28 -62 -27 -82 4 -23 35 -23 175 0
210 20 31 56 33 82 4z"/>
<path d="M11352 3920 c-30 -28 -35 -54 -31 -159 4 -78 7 -93 28 -115 25 -26
76 -35 116 -20 62 24 72 237 14 295 -27 27 -98 26 -127 -1z m102 -29 c33 -36
33 -193 0 -226 -23 -23 -61 -18 -80 9 -23 36 -21 191 2 218 22 23 56 23 78 -1z"/>
<path d="M10954 3649 c-9 -15 12 -33 30 -26 9 4 16 13 16 22 0 17 -35 21 -46
4z"/>
<path d="M10540 2800 c0 -12 -12 -26 -30 -35 -35 -18 -50 -43 -50 -82 0 -38
29 -68 90 -94 61 -26 77 -61 40 -91 -38 -30 -100 -17 -100 22 0 13 -7 20 -20
20 -13 0 -20 -7 -20 -20 0 -24 42 -70 65 -70 8 0 15 -9 15 -20 0 -11 7 -20 15
-20 8 0 15 9 15 20 0 13 7 20 18 20 26 0 59 34 67 70 10 44 -15 75 -83 108
-50 24 -57 31 -60 59 -6 61 76 72 96 13 14 -37 42 -40 42 -5 0 26 -39 75 -60
75 -5 0 -10 11 -10 25 0 16 -6 25 -15 25 -8 0 -15 -9 -15 -20z"/>
<path d="M10725 2738 c-26 -30 -27 -35 -23 -134 3 -92 5 -105 27 -128 26 -28
84 -36 120 -16 29 15 46 70 46 150 0 80 -17 135 -46 150 -10 6 -36 10 -57 10
-33 0 -45 -6 -67 -32z m111 -19 c16 -17 19 -37 19 -109 0 -97 -16 -130 -61
-130 -39 0 -57 40 -57 130 0 57 5 86 17 105 20 31 56 33 82 4z"/>
<path d="M11102 2750 c-30 -28 -35 -54 -31 -159 4 -78 7 -93 28 -115 31 -33
100 -37 130 -7 58 58 48 271 -14 295 -35 13 -91 6 -113 -14z m104 -31 c16 -17
19 -37 19 -109 0 -72 -3 -92 -19 -109 -25 -28 -62 -27 -81 3 -22 33 -22 178
-1 212 20 30 56 31 82 3z"/>
<path d="M11345 2738 c-26 -30 -27 -35 -23 -134 3 -92 5 -105 27 -128 26 -28
84 -36 120 -16 29 15 46 70 46 150 0 80 -17 135 -46 150 -10 6 -36 10 -57 10
-33 0 -45 -6 -67 -32z m109 -13 c34 -34 34 -189 0 -226 -24 -26 -60 -24 -80 5
-22 35 -22 177 0 211 19 29 56 33 80 10z"/>
<path d="M10954 2479 c-9 -15 12 -33 30 -26 9 4 16 13 16 22 0 17 -35 21 -46
4z"/>
<path d="M5260 1630 c0 -12 -12 -26 -30 -35 -35 -18 -50 -43 -50 -82 0 -38 24
-62 88 -92 63 -30 79 -63 42 -93 -38 -30 -100 -17 -100 22 0 13 -7 20 -20 20
-13 0 -20 -7 -20 -20 0 -24 42 -70 64 -70 8 0 16 -10 18 -22 5 -32 28 -35 28
-4 0 18 5 26 18 26 26 0 59 34 67 70 10 44 -15 75 -83 108 -50 24 -57 31 -60
59 -6 61 76 72 96 13 14 -37 42 -40 42 -5 0 26 -39 75 -60 75 -5 0 -10 11 -10
25 0 16 -6 25 -15 25 -8 0 -15 -9 -15 -20z"/>
<path d="M9750 1625 c0 -14 -6 -25 -14 -25 -7 0 -25 -9 -40 -21 -20 -15 -26
-29 -26 -58 0 -49 20 -74 79 -100 37 -15 52 -28 57 -46 14 -58 -68 -77 -94
-22 -12 25 -45 37 -56 19 -10 -17 25 -74 53 -85 18 -6 31 -19 33 -32 4 -27 32
-26 36 3 2 12 10 22 18 22 28 0 64 47 64 83 0 45 -18 66 -81 96 -42 20 -55 32
-57 52 -6 53 71 66 84 14 4 -18 13 -25 30 -25 43 0 21 70 -27 91 -21 8 -29 18
-29 35 0 15 -6 24 -15 24 -9 0 -15 -9 -15 -25z"/>
<path d="M5446 1579 c-28 -22 -35 -59 -12 -59 7 0 21 11 30 25 30 46 106 25
106 -29 0 -30 -30 -56 -63 -56 -17 0 -27 -5 -27 -15 0 -9 9 -15 23 -15 36 0
67 -27 67 -60 0 -60 -71 -83 -108 -35 -24 31 -52 34 -45 5 16 -61 119 -81 167
-34 34 35 35 86 2 119 -18 18 -21 25 -10 29 39 15 37 102 -3 132 -28 21 -96
17 -127 -7z"/>
<path d="M5706 1579 c-14 -11 -26 -29 -26 -40 0 -27 33 -24 45 3 18 42 88 36
99 -8 10 -38 -17 -74 -54 -74 -20 0 -30 -5 -30 -15 0 -9 9 -15 23 -15 36 0 67
-27 67 -60 0 -60 -71 -83 -108 -35 -24 31 -52 34 -45 5 16 -61 119 -81 167
-34 35 35 35 86 1 119 -13 14 -20 25 -15 25 5 0 17 14 25 30 18 35 13 64 -18
98 -27 30 -94 30 -131 1z"/>
<path d="M5962 1580 c-30 -28 -35 -54 -31 -159 4 -78 7 -93 28 -115 25 -26 76
-35 116 -20 63 24 72 257 12 299 -32 22 -99 19 -125 -5z m96 -18 c7 -5 17 -24
22 -43 20 -68 7 -182 -22 -201 -24 -15 -57 -8 -72 14 -12 16 -16 47 -16 108 0
61 4 92 16 108 15 22 48 29 72 14z"/>
<path d="M6212 1580 c-30 -28 -35 -54 -31 -159 4 -78 7 -93 28 -115 25 -26 76
-35 116 -20 62 24 72 237 14 295 -27 27 -98 26 -127 -1z m96 -18 c7 -5 17 -24
22 -43 20 -68 7 -182 -22 -201 -24 -15 -57 -8 -72 14 -12 16 -16 47 -16 108 0
61 4 92 16 108 15 22 48 29 72 14z"/>
<path d="M6582 1580 c-30 -28 -35 -54 -31 -159 4 -78 7 -93 28 -115 25 -26 76
-35 116 -20 62 24 72 237 14 295 -27 27 -98 26 -127 -1z m102 -29 c33 -36 33
-193 0 -226 -22 -22 -60 -18 -78 7 -12 16 -16 47 -16 108 0 95 15 130 54 130
13 0 30 -8 40 -19z"/>
<path d="M6842 1580 c-30 -28 -35 -54 -31 -159 4 -78 7 -93 28 -115 25 -26 76
-35 116 -20 63 24 72 257 12 299 -32 22 -99 19 -125 -5z m96 -18 c7 -5 17 -24
22 -43 20 -68 7 -182 -22 -201 -24 -15 -57 -8 -72 14 -12 16 -16 47 -16 108 0
61 4 92 16 108 15 22 48 29 72 14z"/>
<path d="M9929 1571 c-36 -37 -39 -71 -5 -71 17 0 26 7 30 25 7 28 50 44 75
28 21 -13 26 -59 8 -86 -8 -12 -42 -52 -76 -90 -33 -37 -61 -74 -61 -82 0 -12
20 -15 110 -15 103 0 110 1 110 20 0 18 -7 20 -77 20 l-77 0 40 43 c103 107
123 168 69 214 -40 35 -107 32 -146 -6z"/>
<path d="M10254 1586 c-53 -23 -78 -71 -82 -152 -6 -110 24 -154 106 -154 29
0 46 7 66 26 30 31 36 66 21 131 -9 40 -95 69 -123 41 -21 -21 -25 0 -6 32 13
20 31 34 56 41 28 7 38 15 38 29 0 24 -30 26 -76 6z m50 -152 c19 -18 21 -85
4 -102 -19 -19 -55 -14 -72 10 -43 61 18 143 68 92z"/>
<path d="M10523 1558 c-14 -24 -46 -73 -70 -111 -59 -93 -58 -97 27 -97 l70 0
0 -35 c0 -31 3 -35 25 -35 22 0 25 4 25 35 0 28 4 35 20 35 13 0 20 7 20 19 0
10 -9 21 -20 24 -18 5 -20 14 -20 106 0 101 0 101 -25 101 -18 0 -32 -11 -52
-42z m27 -103 l0 -65 -40 0 c-22 0 -40 2 -40 5 0 6 74 125 77 125 2 0 3 -29 3
-65z"/>
<path d="M10707 1570 c-29 -34 -42 -107 -32 -180 10 -71 44 -110 97 -110 82 0
108 39 108 160 0 121 -26 160 -108 160 -32 0 -45 -6 -65 -30z m107 -32 c11
-16 16 -46 16 -98 0 -85 -16 -120 -55 -120 -35 0 -45 27 -45 120 0 45 5 90 10
101 14 26 55 24 74 -3z"/>
<path d="M11092 1580 c-28 -27 -37 -60 -37 -140 0 -116 27 -160 98 -160 79 0
107 43 107 165 0 81 -16 127 -49 145 -33 17 -95 12 -119 -10z m102 -42 c11
-16 16 -46 16 -98 0 -85 -16 -120 -55 -120 -35 0 -45 27 -45 120 0 45 5 90 10
101 14 26 55 24 74 -3z"/>
<path d="M11347 1571 c-47 -56 -47 -206 0 -262 20 -23 33 -29 65 -29 82 0 108
39 108 160 0 121 -26 160 -108 160 -32 0 -45 -6 -65 -29z m107 -33 c11 -16 16
-46 16 -98 0 -85 -16 -120 -55 -120 -35 0 -45 27 -45 120 0 45 5 90 10 101 14
26 55 24 74 -3z"/>
<path d="M880 1541 c0 -16 8 -20 43 -23 l42 -3 2 -110 c1 -60 3 -113 3 -117 0
-5 9 -8 20 -8 19 0 20 7 20 120 l0 120 45 0 c38 0 45 3 45 20 0 19 -7 20 -110
20 -102 0 -110 -1 -110 -19z"/>
<path d="M1179 1545 c-74 -40 -78 -199 -8 -249 13 -9 42 -16 64 -16 49 0 83
22 101 66 18 44 18 94 -2 144 -26 64 -94 88 -155 55z m96 -39 c27 -19 34 -126
11 -161 -22 -33 -78 -35 -100 -3 -24 34 -21 133 4 158 23 23 58 26 85 6z"/>
<path d="M1360 1541 c0 -16 8 -20 43 -23 l42 -3 2 -110 c1 -60 3 -113 3 -117
0 -5 9 -8 20 -8 19 0 20 7 20 120 l0 120 45 0 c38 0 45 3 45 20 0 19 -7 20
-110 20 -102 0 -110 -1 -110 -19z"/>
<path d="M1663 1543 c-3 -10 -26 -69 -50 -131 -23 -63 -43 -118 -43 -123 0 -5
9 -9 20 -9 13 0 25 12 34 35 14 32 18 35 58 35 52 0 64 -7 73 -43 5 -20 13
-27 31 -27 13 0 24 3 24 8 0 4 -22 66 -49 137 -40 105 -53 131 -70 133 -13 2
-24 -3 -28 -15z m46 -94 c7 -23 15 -47 18 -55 4 -11 -5 -14 -37 -14 -32 0 -41
3 -37 14 3 8 11 32 18 55 7 23 15 41 19 41 4 0 12 -18 19 -41z"/>
<path d="M1850 1421 l0 -141 85 0 c78 0 85 2 85 20 0 18 -7 20 -60 20 l-59 0
-3 118 c-3 113 -4 117 -25 120 -23 3 -23 3 -23 -137z"/>
<path d="M10944 1315 c-4 -9 -2 -21 4 -27 16 -16 47 -5 47 17 0 26 -42 34 -51
10z"/>
<path d="M6434 1309 c-9 -15 12 -33 30 -26 9 4 16 13 16 22 0 17 -35 21 -46 4z"/>
</g>
</svg>
