<?xml version="1.0" standalone="no"?>
<!DOCTYPE svg PUBLIC "-//W3C//DTD SVG 20010904//EN"
 "http://www.w3.org/TR/2001/REC-SVG-20010904/DTD/svg10.dtd">
<svg version="1.0" xmlns="http://www.w3.org/2000/svg"
 width="1080.000000pt" height="1920.000000pt" viewBox="0 0 1080.000000 1920.000000"
 preserveAspectRatio="xMidYMid meet">

<g transform="translate(0.000000,1920.000000) scale(0.100000,-0.100000)"
fill="#000000" stroke="none">
<path d="M3549 18118 c-43 -15 -51 -50 -47 -218 3 -136 5 -153 22 -166 15 -11
59 -14 188 -14 166 0 168 0 183 24 21 32 17 131 -5 131 -11 0 -16 -14 -18 -50
-2 -27 -6 -53 -10 -57 -9 -9 -280 -14 -289 -5 -8 8 96 117 111 117 5 0 22 -12
37 -26 32 -31 44 -27 108 40 43 46 64 55 76 36 12 -20 23 -9 27 28 8 65 2 72
-58 72 -50 0 -68 -10 -44 -25 20 -12 9 -42 -30 -80 -30 -29 -44 -37 -54 -30
-7 6 -25 19 -40 29 l-27 19 -59 -58 c-32 -32 -63 -54 -69 -51 -14 9 -15 200 0
227 9 19 20 20 172 18 149 -1 162 1 162 17 0 11 -11 21 -30 26 -40 11 -273 8
-306 -4z"/>
<path d="M3342 17253 c3 -17 28 -18 363 -18 335 0 360 1 363 18 3 16 -19 17
-363 17 -344 0 -366 -1 -363 -17z"/>
<path d="M1774 14267 c-2 -7 -3 -67 -2 -133 2 -98 6 -119 18 -119 12 0 15 23
18 133 2 114 0 132 -13 132 -9 0 -18 -6 -21 -13z"/>
<path d="M1864 14267 c-2 -7 -3 -67 -2 -132 3 -105 5 -120 21 -123 15 -3 17 8
17 132 0 115 -2 136 -15 136 -9 0 -18 -6 -21 -13z"/>
<path d="M1607 14263 c-12 -20 -87 -225 -87 -238 0 -25 28 -17 42 13 12 24 19
27 63 27 44 0 51 -3 63 -27 15 -31 42 -38 42 -10 -1 36 -86 237 -102 240 -9 2
-18 -1 -21 -5z m43 -109 c13 -39 4 -54 -32 -54 -25 0 -31 17 -18 55 15 45 35
45 50 -1z"/>
<path d="M2180 14255 c0 -8 7 -15 15 -15 8 0 15 7 15 15 0 8 -7 15 -15 15 -8
0 -15 -7 -15 -15z"/>
<path d="M2060 14226 c-5 -13 -15 -26 -22 -29 -10 -4 -9 -9 5 -20 12 -11 17
-29 17 -71 0 -70 12 -96 45 -96 27 0 34 24 10 34 -23 8 -21 114 3 133 13 11
14 16 4 20 -7 3 -17 16 -22 29 -5 13 -14 24 -20 24 -6 0 -15 -11 -20 -24z"/>
<path d="M2175 14177 c-3 -12 -5 -54 -3 -92 2 -57 6 -70 21 -73 15 -3 17 6 17
92 0 78 -3 96 -15 96 -8 0 -17 -10 -20 -23z"/>
<path d="M2264 14185 c-3 -7 -4 -47 -2 -91 2 -62 6 -79 18 -79 11 0 16 15 18
65 3 69 13 90 43 90 27 0 39 -31 39 -100 0 -53 2 -61 18 -58 14 3 18 17 22 78
l5 75 30 0 30 0 5 -75 c4 -61 8 -75 23 -78 15 -3 17 6 17 76 0 64 -4 82 -18
95 -21 19 -54 22 -83 6 -14 -7 -24 -7 -33 0 -17 14 -127 11 -132 -4z"/>
<path d="M2605 14175 c-19 -18 -25 -35 -25 -70 0 -35 6 -52 25 -70 26 -27 72
-33 106 -15 32 18 23 33 -16 26 -39 -8 -75 7 -75 29 0 15 5 16 75 19 35 1 40
4 43 27 8 68 -82 105 -133 54z m85 -20 c17 -20 4 -35 -30 -35 -16 0 -32 5 -35
10 -9 15 13 40 35 40 10 0 23 -7 30 -15z"/>
<path d="M6550 11032 c1 -12 24 -38 50 -55 23 -14 28 -14 60 0 19 9 39 15 44
14 5 -1 3 5 -4 14 -7 9 -19 14 -25 11 -7 -2 -16 -1 -21 3 -12 11 -104 23 -104
13z"/>
<path d="M1332 10258 c-12 -12 -17 -104 -6 -132 3 -9 11 -16 16 -16 6 0 6 6
-1 14 -18 21 -10 117 10 129 33 21 49 1 49 -61 0 -32 -5 -63 -12 -70 -9 -9 -9
-12 0 -12 34 0 45 115 14 143 -22 20 -53 22 -70 5z"/>
<path d="M1527 10236 c-3 -18 -15 -53 -26 -77 -20 -41 -23 -69 -3 -32 32 59
60 143 48 143 -8 0 -16 -15 -19 -34z"/>
<path d="M1667 10263 c-11 -10 -8 -141 3 -148 6 -4 10 13 10 44 0 66 15 65 60
-2 19 -28 40 -50 45 -49 14 3 19 152 5 152 -5 0 -10 -22 -10 -50 0 -27 -4 -50
-10 -50 -5 0 -26 25 -46 55 -37 55 -44 61 -57 48z"/>
<path d="M2201 10261 c-11 -7 -11 -9 0 -13 9 -3 16 -29 20 -74 l6 -69 1 83 c2
82 -1 89 -27 73z"/>
<path d="M2380 10250 c15 -27 6 -51 -35 -97 -34 -38 -34 -60 -1 -47 12 4 14 9
7 14 -8 4 1 22 24 51 37 47 42 68 23 87 -19 19 -30 14 -18 -8z"/>
<path d="M2520 10251 c-14 -27 -13 -114 2 -129 21 -21 27 -13 12 16 -7 15 -14
38 -14 52 0 14 7 37 14 53 8 15 11 27 6 27 -5 0 -14 -9 -20 -19z"/>
<path d="M2583 10252 c22 -24 23 -105 2 -126 -22 -22 -18 -32 5 -11 35 32 25
155 -14 155 -5 0 -2 -8 7 -18z"/>
<path d="M2671 10261 c-32 -20 -22 -151 11 -151 9 0 9 3 0 12 -16 16 -16 120
0 136 14 14 9 15 -11 3z"/>
<path d="M4482 10263 c-11 -4 -10 -8 2 -22 8 -9 16 -42 19 -76 3 -57 3 -56 5
17 2 77 -2 89 -26 81z"/>
<path d="M4602 10258 c-20 -20 -15 -76 7 -88 32 -17 36 -12 11 15 -20 22 -22
28 -11 51 13 30 10 39 -7 22z"/>
<path d="M4663 10241 c9 -25 9 -36 -2 -53 -10 -16 -10 -23 -2 -26 8 -3 8 -9 0
-24 -6 -11 -9 -22 -6 -24 2 -2 12 11 22 29 20 38 15 96 -10 117 -12 10 -12 7
-2 -19z"/>
<path d="M4800 10189 c0 -52 4 -78 10 -74 6 4 10 21 9 38 -1 18 -1 38 0 45 2
22 27 13 42 -15 20 -41 52 -83 61 -83 4 0 8 39 8 86 0 54 -4 83 -10 79 -5 -3
-10 -28 -10 -56 0 -27 -5 -49 -10 -49 -6 0 -26 25 -45 55 -20 30 -40 55 -45
55 -6 0 -10 -35 -10 -81z"/>
<path d="M5332 10261 c-11 -7 -11 -9 2 -14 12 -5 16 -21 16 -72 0 -38 4 -65
10 -65 14 0 9 152 -5 157 -5 1 -16 -1 -23 -6z"/>
<path d="M5503 10260 c23 -15 22 -52 -5 -85 l-21 -27 21 13 c48 30 52 100 6
107 -18 3 -18 2 -1 -8z"/>
<path d="M5659 10253 c-8 -9 -14 -39 -14 -70 0 -42 4 -58 19 -69 11 -7 22 -11
25 -8 3 3 -2 10 -12 15 -25 14 -25 124 1 138 9 6 12 11 6 11 -6 0 -18 -7 -25
-17z"/>
<path d="M5714 10254 c19 -19 22 -114 4 -132 -9 -9 -9 -12 0 -12 34 0 45 115
14 143 -24 22 -39 22 -18 1z"/>
<path d="M5802 10258 c-7 -7 -12 -37 -12 -68 0 -44 4 -61 20 -75 11 -10 22
-16 25 -13 3 3 -4 13 -15 23 -26 23 -28 100 -3 127 18 20 4 25 -15 6z"/>
<path d="M5858 10258 c19 -25 23 -91 7 -122 -20 -38 -19 -43 5 -21 26 23 28
115 4 139 -18 19 -31 21 -16 4z"/>
<path d="M7597 10263 c-4 -3 -7 -11 -7 -17 0 -6 5 -5 12 2 18 18 46 14 53 -8
4 -11 11 -18 16 -15 5 4 5 14 -1 26 -10 19 -59 27 -73 12z"/>
<path d="M7743 10262 c-31 -20 -23 -152 9 -152 9 0 9 3 0 12 -18 18 -15 113 4
132 16 17 8 21 -13 8z"/>
<path d="M7793 10253 c22 -25 23 -100 1 -131 -20 -28 -11 -28 16 0 34 36 21
133 -20 146 -12 4 -11 1 3 -15z"/>
<path d="M7929 10243 c-2 -57 1 -126 6 -131 3 -3 5 8 5 24 0 39 10 74 21 74 5
0 25 -25 45 -55 19 -31 39 -53 44 -50 13 8 13 155 0 155 -5 0 -10 -22 -10 -50
0 -27 -4 -50 -10 -50 -5 0 -26 25 -46 55 -20 30 -41 55 -45 55 -5 0 -9 -12
-10 -27z"/>
<path d="M8464 10259 c-3 -6 -1 -15 7 -19 8 -6 13 -29 13 -63 1 -31 4 -59 9
-63 4 -4 7 29 7 74 0 65 -3 82 -14 82 -8 0 -18 -5 -22 -11z"/>
<path d="M8603 10264 c-8 -4 -6 -11 7 -24 16 -16 19 -30 15 -69 -2 -28 0 -53
6 -57 6 -4 9 22 7 72 -3 74 -9 88 -35 78z"/>
<path d="M8800 10254 c0 -12 3 -14 13 -6 6 5 23 12 37 15 18 3 15 5 -12 6 -29
1 -38 -3 -38 -15z"/>
<path d="M8935 10254 c-22 -23 -15 -63 15 -83 l24 -16 -23 31 c-19 26 -21 35
-12 53 7 11 21 21 32 21 24 0 41 -38 28 -62 -5 -10 -7 -28 -3 -42 4 -17 0 -27
-13 -35 -10 -6 -13 -11 -6 -11 34 -1 57 95 33 141 -13 23 -53 25 -75 3z"/>
<path d="M2315 10250 c-3 -5 -1 -10 4 -10 6 0 11 5 11 10 0 6 -2 10 -4 10 -3
0 -8 -4 -11 -10z"/>
<path d="M2738 10200 c4 -49 1 -65 -14 -82 -19 -21 -19 -21 3 -9 26 13 40 82
24 124 -6 15 -12 27 -14 27 -2 0 -1 -27 1 -60z"/>
<path d="M5450 10249 c0 -5 5 -7 10 -4 6 3 10 8 10 11 0 2 -4 4 -10 4 -5 0
-10 -5 -10 -11z"/>
<path d="M6137 10233 c-10 -9 -9 -51 1 -57 8 -5 52 45 52 59 0 7 -45 6 -53 -2z"/>
<path d="M6265 10228 c-3 -8 1 -27 9 -43 12 -23 16 -26 21 -13 9 24 2 61 -12
66 -7 2 -15 -3 -18 -10z"/>
<path d="M1898 10218 c28 -14 38 -51 23 -84 -14 -31 -6 -31 14 0 21 31 11 70
-21 85 -32 14 -46 13 -16 -1z"/>
<path d="M2890 10219 c-13 -9 -13 -10 0 -8 35 4 42 -1 38 -26 -3 -14 -1 -28 3
-31 5 -3 5 -14 -1 -24 -11 -20 2 -36 20 -25 15 10 12 78 -6 103 -17 24 -31 27
-54 11z"/>
<path d="M3018 10222 c-26 -3 -28 -7 -28 -47 0 -57 18 -68 22 -13 3 38 6 43
29 46 30 4 40 -18 33 -68 -3 -17 -1 -30 5 -30 6 0 11 12 11 28 0 51 11 72 36
72 24 0 29 -10 37 -75 2 -17 5 -8 6 22 0 32 -4 55 -11 60 -13 8 -92 11 -140 5z"/>
<path d="M5005 10218 c-11 -6 -23 -16 -27 -22 -12 -17 -9 -61 4 -74 20 -20 30
-13 14 10 -21 30 -20 44 4 68 31 31 60 11 60 -40 0 -24 -5 -40 -12 -40 -6 0
-8 -3 -4 -7 11 -11 36 27 36 54 0 22 -31 63 -47 63 -5 0 -17 -6 -28 -12z"/>
<path d="M8138 10219 c-31 -18 -41 -47 -28 -80 7 -16 17 -29 23 -29 7 0 7 4
-1 12 -17 17 -15 64 4 82 31 31 59 10 59 -43 0 -48 2 -50 15 -16 10 25 -4 75
-21 75 -4 0 -13 2 -21 5 -7 2 -21 0 -30 -6z"/>
<path d="M8792 10215 c2 -12 12 -20 23 -21 11 -1 25 -2 32 -3 18 -2 26 -38 13
-61 -7 -14 -7 -20 0 -20 6 0 15 12 21 26 12 34 -11 74 -44 74 -13 0 -29 6 -36
13 -10 10 -12 8 -9 -8z"/>
<path d="M9149 10223 c-26 -4 -26 -5 -25 -78 1 -41 5 -77 9 -81 8 -8 10 8 11
86 1 54 1 55 31 55 27 0 30 -4 33 -33 2 -18 -3 -40 -10 -49 -11 -14 -11 -15 2
-11 26 8 36 56 19 86 -15 28 -27 32 -70 25z"/>
<path d="M9320 10222 c0 -2 7 -10 15 -18 8 -9 15 -33 15 -55 0 -55 18 -49 22
8 2 37 7 49 22 51 27 6 39 -13 38 -58 -1 -23 2 -39 7 -36 11 7 12 78 1 95 -7
12 -120 24 -120 13z"/>
<path d="M1852 10208 c-18 -18 -15 -85 4 -92 24 -9 27 -7 10 10 -18 18 -20 47
-6 75 12 22 9 24 -8 7z"/>
<path d="M1980 10205 c0 -8 4 -15 10 -15 5 0 7 7 4 15 -4 8 -8 15 -10 15 -2 0
-4 -7 -4 -15z"/>
<path d="M2046 10186 c-8 -20 -20 -36 -25 -36 -6 0 -11 -9 -11 -20 0 -25 19
-26 26 -2 3 9 12 32 20 51 8 18 13 36 10 38 -3 3 -12 -11 -20 -31z"/>
<path d="M6008 10213 c6 -2 18 -2 25 0 6 3 1 5 -13 5 -14 0 -19 -2 -12 -5z"/>
<path d="M8251 10214 c-2 -23 32 -105 43 -101 17 6 20 37 3 37 -8 0 -21 17
-30 38 -8 20 -15 32 -16 26z"/>
<path d="M8322 10200 c0 -14 2 -19 5 -12 2 6 2 18 0 25 -3 6 -5 1 -5 -13z"/>
<path d="M9271 10163 l2 -58 6 45 c4 25 10 51 14 58 5 8 3 12 -7 12 -13 0 -16
-12 -15 -57z"/>
<path d="M5117 10190 c3 -11 10 -23 16 -27 7 -4 8 0 4 11 -4 10 -7 22 -7 27 0
5 -4 9 -9 9 -5 0 -7 -9 -4 -20z"/>
<path d="M5187 10203 c-4 -3 -7 -13 -7 -22 1 -13 3 -13 11 2 11 19 8 33 -4 20z"/>
<path d="M7636 10197 c-19 -14 -19 -15 2 -21 24 -8 29 -35 10 -54 -9 -9 -8
-12 4 -12 20 0 33 36 20 53 -5 7 -11 20 -13 30 -4 16 -6 16 -23 4z"/>
<path d="M6000 10155 c-28 -33 23 -77 54 -45 6 6 7 11 1 10 -34 -7 -47 1 -43
25 6 29 5 30 -12 10z"/>
<path d="M2868 10154 c-14 -13 -9 -42 8 -48 27 -10 40 -6 23 7 -9 7 -18 21
-20 31 -2 10 -7 14 -11 10z"/>
<path d="M5157 10153 c-10 -3 -17 -12 -15 -21 5 -26 25 -25 30 3 3 14 5 24 4
24 0 -1 -9 -3 -19 -6z"/>
<path d="M5463 10133 c-18 -6 -16 -33 1 -33 8 0 17 4 20 8 7 12 -7 30 -21 25z"/>
<path d="M7590 10115 c7 -8 20 -15 28 -15 13 0 12 3 -4 15 -25 19 -40 19 -24
0z"/>
<path d="M8804 10115 c11 -8 24 -15 30 -15 5 0 1 7 -10 15 -10 8 -23 14 -29
14 -5 0 -1 -6 9 -14z"/>
<path d="M3903 9325 c-40 -17 -53 -42 -53 -100 0 -51 20 -99 45 -109 65 -24
124 15 132 87 7 63 -11 106 -53 123 -39 16 -31 17 -71 -1z m68 -33 c17 -15 22
-29 22 -63 0 -61 -17 -89 -53 -89 -51 0 -79 76 -49 133 22 41 45 47 80 19z"/>
<path d="M4912 9330 c-28 -12 -42 -48 -42 -110 0 -86 32 -122 95 -106 32 8 45
41 45 116 0 82 -40 123 -98 100z m58 -39 c11 -22 13 -93 4 -128 -9 -33 -51
-31 -64 3 -23 59 -5 144 29 144 11 0 25 -9 31 -19z"/>
<path d="M5280 9331 c-38 -10 -52 -46 -47 -119 5 -72 25 -102 69 -102 39 0 68
32 69 78 4 81 -2 107 -27 130 -27 24 -26 24 -64 13z m48 -33 c12 -12 17 -114
6 -142 -3 -9 -17 -16 -30 -16 -31 0 -47 39 -41 97 7 63 36 90 65 61z"/>
<path d="M6458 9329 c-29 -11 -58 -62 -58 -103 0 -38 25 -93 48 -105 29 -15
74 -14 99 4 28 19 44 94 31 141 -14 52 -70 81 -120 63z m58 -27 c55 -36 39
-162 -21 -162 -38 0 -55 26 -55 81 0 65 38 107 76 81z"/>
<path d="M6956 9329 c-30 -8 -48 -27 -40 -41 3 -5 19 -1 35 9 27 16 30 16 45
1 20 -20 12 -48 -16 -55 -27 -7 -25 -31 3 -35 15 -2 23 -11 25 -30 4 -35 -27
-54 -54 -33 -37 28 -60 12 -28 -19 22 -23 80 -20 104 4 24 24 25 48 4 79 -12
17 -13 26 -5 34 6 6 11 23 11 38 0 41 -35 61 -84 48z"/>
<path d="M7142 9332 c-51 -8 -73 -143 -31 -196 25 -32 70 -35 99 -6 28 28 29
159 3 182 -23 19 -42 25 -71 20z m48 -41 c11 -21 14 -110 4 -135 -10 -27 -53
-20 -65 12 -30 76 25 188 61 123z"/>
<path d="M7444 9315 c-19 -19 -24 -29 -15 -38 8 -8 16 -5 31 11 24 26 43 28
60 7 17 -21 5 -48 -51 -112 -27 -30 -46 -60 -43 -64 3 -5 37 -9 75 -9 52 0 70
3 67 13 -3 6 -23 13 -46 15 -23 2 -42 7 -42 11 0 4 12 18 26 32 50 46 70 114
41 138 -8 6 -28 14 -45 17 -25 5 -36 1 -58 -21z"/>
<path d="M7653 9330 c-32 -13 -43 -41 -43 -112 0 -75 22 -108 70 -108 54 0 76
43 68 136 -6 73 -42 105 -95 84z m57 -46 c13 -33 13 -100 0 -125 -6 -10 -19
-19 -30 -19 -26 0 -40 29 -40 85 0 25 5 55 10 66 15 28 49 24 60 -7z"/>
<path d="M7816 9319 c-14 -11 -26 -27 -26 -35 0 -21 28 -17 40 6 14 27 49 26
59 -2 11 -28 3 -44 -55 -109 -28 -32 -42 -55 -36 -61 12 -12 138 -6 135 7 -2
6 -21 11 -43 13 -22 2 -40 6 -40 9 0 3 18 28 40 55 54 68 53 106 -3 127 -38
15 -40 14 -71 -10z"/>
<path d="M3624 9317 c-3 -8 -3 -56 -2 -108 2 -76 6 -94 18 -94 12 0 16 15 18
68 2 37 6 67 11 67 4 0 28 -32 52 -70 62 -99 73 -93 77 43 2 91 0 107 -13 107
-17 0 -16 3 -20 -73 -1 -32 -5 -60 -7 -63 -3 -2 -26 27 -52 66 -44 67 -71 85
-82 57z"/>
<path d="M4060 9323 c0 -4 16 -54 36 -110 35 -99 50 -118 71 -90 16 19 77 197
70 203 -16 16 -34 -10 -55 -75 -13 -39 -27 -71 -33 -71 -5 0 -9 1 -9 3 0 1
-11 34 -24 72 -15 44 -30 71 -40 73 -9 2 -16 0 -16 -5z"/>
<path d="M4350 9320 c0 -5 22 -10 48 -10 27 0 51 -3 55 -6 6 -6 -12 -51 -52
-134 -25 -52 -26 -63 -5 -58 16 3 106 197 98 210 -8 12 -144 10 -144 -2z"/>
<path d="M4708 9319 c-17 -9 -26 -49 -11 -49 4 0 17 10 30 22 19 17 28 20 41
12 32 -20 25 -49 -27 -110 -28 -32 -51 -65 -51 -71 0 -9 21 -13 71 -13 52 0
70 3 67 13 -3 6 -21 13 -41 15 -20 2 -37 8 -37 14 0 5 16 28 35 51 37 43 46
92 23 115 -15 15 -76 15 -100 1z"/>
<path d="M5067 9312 c-10 -10 -17 -24 -17 -30 0 -19 24 -14 43 8 9 11 23 20
32 20 8 0 19 -9 25 -20 13 -25 2 -48 -56 -114 -24 -26 -41 -52 -38 -57 9 -15
146 -11 142 4 -3 6 -23 13 -46 15 -23 2 -42 6 -42 8 0 3 16 24 35 47 42 49 52
79 36 113 -9 20 -18 24 -54 24 -30 0 -49 -6 -60 -18z"/>
<path d="M6180 9220 c0 -91 3 -110 15 -110 12 0 15 14 15 64 0 36 4 68 10 71
5 3 30 -26 55 -65 58 -91 78 -92 78 -5 0 136 -2 155 -18 155 -12 0 -15 -14
-15 -65 0 -38 -4 -65 -10 -65 -6 0 -29 29 -52 65 -26 41 -48 65 -60 65 -16 0
-18 -10 -18 -110z"/>
<path d="M6617 9323 c-2 -5 12 -53 32 -108 29 -78 40 -100 55 -100 15 0 27 22
56 100 22 59 34 104 29 110 -14 14 -28 -6 -52 -75 -12 -34 -26 -62 -32 -62 -5
0 -21 32 -35 71 -22 63 -41 86 -53 64z"/>
<path d="M7986 9308 c-19 -27 -21 -125 -4 -163 21 -46 101 -46 118 1 16 40 12
137 -6 162 -11 16 -25 22 -54 22 -29 0 -43 -6 -54 -22z m84 -17 c14 -27 13
-124 -2 -139 -18 -18 -46 -14 -58 7 -13 25 -13 92 0 125 11 31 45 35 60 7z"/>
<path d="M5655 9260 c-4 -6 -2 -17 4 -23 15 -15 25 -2 13 19 -7 12 -11 13 -17
4z"/>
<path d="M5676 9185 c-3 -8 -1 -15 4 -15 6 0 10 7 10 15 0 8 -2 15 -4 15 -2 0
-6 -7 -10 -15z"/>
<path d="M5790 9166 c0 -9 5 -16 10 -16 6 0 10 4 10 9 0 6 -4 13 -10 16 -5 3
-10 -1 -10 -9z"/>
<path d="M5920 9162 c0 -7 -7 -12 -15 -12 -19 0 -20 -16 -1 -23 15 -6 33 29
22 40 -3 4 -6 1 -6 -5z"/>
<path d="M4548 9133 c-13 -21 -18 -63 -8 -63 17 0 35 49 23 61 -6 6 -13 7 -15
2z"/>
<path d="M7276 9109 c-3 -18 -4 -35 -1 -37 9 -9 24 12 27 37 4 36 -18 36 -26
0z"/>
<path d="M8068 8059 c-55 -57 -48 -93 23 -129 45 -24 57 -43 39 -65 -17 -21
-44 -19 -65 5 -22 24 -35 26 -35 3 0 -9 16 -31 35 -49 l35 -32 36 34 c57 51
48 98 -25 132 -27 13 -36 23 -36 42 0 33 30 38 61 9 22 -21 24 -21 30 -4 5 13
0 25 -18 40 -14 12 -29 29 -34 37 -8 14 -15 10 -46 -23z"/>
<path d="M1763 8068 c-50 -24 -37 -76 25 -101 46 -18 65 -39 56 -61 -10 -27
-70 -26 -90 2 -7 9 -16 13 -21 9 -13 -14 37 -47 72 -47 41 0 70 30 61 63 -4
17 -20 31 -55 46 -27 11 -51 26 -54 33 -15 43 61 68 83 28 6 -11 16 -18 22
-14 14 9 -20 40 -52 47 -14 3 -35 0 -47 -5z"/>
<path d="M2108 8063 c-3 -10 -4 -56 -4 -103 l1 -85 49 -3 c73 -5 106 35 74 88
-10 16 -10 24 0 41 11 17 11 25 -3 45 -8 13 -24 24 -34 24 -10 0 -32 3 -48 6
-24 5 -31 2 -35 -13z m90 -15 c30 -30 -11 -78 -53 -62 -15 6 -21 55 -8 67 11
11 48 8 61 -5z m6 -94 c32 -32 11 -64 -41 -64 -31 0 -33 2 -33 33 0 19 3 37 7
40 12 13 51 7 67 -9z"/>
<path d="M2319 8069 c-56 -20 -42 -79 25 -104 46 -18 60 -34 50 -59 -11 -29
-75 -24 -96 8 -4 6 -11 7 -15 2 -13 -13 37 -46 69 -46 46 0 68 17 68 51 0 27
-6 33 -55 55 -56 26 -68 47 -43 72 18 18 45 14 67 -9 10 -11 22 -16 25 -11 7
11 -22 38 -49 45 -11 3 -32 1 -46 -4z"/>
<path d="M2488 8050 c-28 -29 -30 -35 -26 -87 4 -43 10 -61 28 -75 29 -23 72
-23 101 1 34 28 16 37 -20 10 -28 -21 -31 -21 -55 -5 -31 20 -41 53 -31 103
11 61 57 81 95 41 11 -12 23 -18 27 -14 11 11 -44 56 -68 56 -11 0 -34 -14
-51 -30z"/>
<path d="M2666 8073 c-10 -10 -7 -193 3 -193 6 0 11 15 13 33 2 26 8 33 30 35
21 3 30 -3 42 -26 8 -15 23 -35 32 -43 16 -13 17 -12 10 6 -31 75 -30 73 -13
93 38 41 6 89 -64 96 -26 3 -49 2 -53 -1z m92 -25 c18 -18 14 -56 -7 -68 -49
-25 -80 1 -67 56 5 18 13 24 34 24 15 0 33 -5 40 -12z"/>
<path d="M2932 8063 c-11 -20 -11 -178 0 -189 8 -8 16 9 20 46 3 21 9 26 45
31 52 7 73 24 73 59 0 36 -26 57 -82 65 -39 6 -48 4 -56 -12z m107 -35 c21
-36 2 -58 -50 -58 -39 0 -39 0 -39 38 0 47 6 54 44 50 21 -2 35 -12 45 -30z"/>
<path d="M3110 8074 c0 -2 11 -9 25 -14 23 -9 24 -14 27 -95 2 -48 7 -85 13
-85 6 0 12 39 15 87 5 82 7 88 28 91 44 7 21 17 -43 19 -36 1 -65 0 -65 -3z"/>
<path d="M3415 8068 c-35 -18 -45 -40 -45 -94 0 -67 27 -104 75 -104 53 0 77
27 83 93 4 52 2 58 -26 87 -32 32 -54 36 -87 18z m71 -29 c22 -25 25 -108 5
-133 -17 -21 -60 -20 -83 1 -27 24 -25 106 4 133 28 26 50 25 74 -1z"/>
<path d="M3812 8064 c-12 -8 -22 -25 -22 -38 0 -26 19 -45 73 -69 44 -20 50
-51 12 -69 -22 -10 -30 -8 -55 10 -16 12 -31 18 -34 13 -9 -15 41 -41 78 -41
27 0 40 6 51 24 23 34 6 62 -51 88 -50 21 -63 40 -44 63 18 21 50 18 77 -7 20
-19 23 -19 23 -4 0 10 -14 23 -35 32 -43 18 -46 18 -73 -2z"/>
<path d="M1904 8045 c-11 -44 1 -133 21 -155 22 -24 71 -26 103 -4 20 14 22
24 22 100 0 49 -4 84 -10 84 -6 0 -10 -31 -10 -73 0 -74 -9 -99 -41 -110 -9
-3 -26 1 -38 9 -18 13 -21 25 -21 89 0 75 -14 107 -26 60z"/>
<path d="M2850 7970 c0 -65 4 -99 10 -95 6 3 10 46 10 95 0 49 -4 92 -10 95
-6 4 -10 -30 -10 -95z"/>
<path d="M3295 8049 c-9 -38 -1 -174 10 -172 13 4 19 173 6 186 -7 7 -12 2
-16 -14z"/>
<path d="M3580 7975 c0 -57 4 -95 10 -95 6 0 10 26 10 59 0 33 4 63 10 66 5 3
30 -26 56 -65 26 -39 52 -69 58 -67 15 5 21 187 6 187 -5 0 -11 -10 -11 -22
-1 -13 -2 -34 -4 -48 -1 -14 -3 -33 -3 -43 -3 -27 -18 -13 -63 59 -58 91 -69
86 -69 -31z"/>
<path d="M8236 8041 c-26 -29 -10 -46 20 -22 28 22 61 17 69 -10 8 -24 -1 -38
-31 -49 -29 -11 -32 -30 -5 -30 27 0 44 -26 37 -55 -7 -29 -45 -35 -70 -10
-19 19 -36 19 -36 1 0 -21 40 -46 73 -46 33 0 77 40 77 69 0 11 -7 27 -17 36
-15 16 -15 19 1 46 14 23 15 33 5 51 -16 31 -28 38 -70 38 -23 0 -42 -7 -53
-19z"/>
<path d="M8430 8040 c-22 -22 -25 -36 -9 -45 5 -4 21 5 34 19 27 29 36 31 53
14 25 -25 12 -60 -44 -125 -38 -42 -53 -68 -47 -74 13 -13 142 -7 146 6 1 6
-14 11 -33 13 -62 5 -63 8 -15 67 49 61 58 101 27 128 -26 24 -87 22 -112 -3z"/>
<path d="M8662 8044 c-49 -34 -68 -125 -37 -183 38 -74 135 -45 135 39 0 52
-30 84 -71 78 -44 -7 -39 29 6 48 20 8 33 19 30 24 -9 15 -38 12 -63 -6z m52
-110 c19 -18 20 -38 6 -65 -21 -38 -70 -17 -70 31 0 46 34 64 64 34z"/>
<path d="M8820 8028 c-38 -63 -18 -184 33 -202 67 -24 113 36 104 136 -6 70
-28 98 -77 98 -35 0 -43 -5 -60 -32z m95 -88 c0 -58 -3 -75 -17 -84 -13 -8
-23 -8 -35 0 -26 16 -31 145 -7 168 14 15 19 15 38 3 18 -13 21 -24 21 -87z"/>
<path d="M9163 8050 c-62 -25 -87 -157 -38 -205 30 -30 64 -32 99 -4 56 44 21
144 -48 137 -42 -4 -43 18 -2 43 53 31 45 51 -11 29z m42 -124 c20 -30 5 -76
-24 -76 -35 0 -57 48 -35 79 20 27 40 27 59 -3z"/>
<path d="M9311 8034 c-44 -56 -13 -129 53 -127 20 1 36 -1 36 -4 0 -17 -23
-42 -45 -47 -14 -4 -25 -13 -25 -21 0 -18 2 -18 45 -1 47 20 68 65 63 132 -6
65 -28 94 -74 94 -23 0 -38 -7 -53 -26z m92 -38 c8 -23 6 -32 -12 -49 -16 -17
-25 -19 -38 -11 -23 14 -32 45 -22 72 13 34 59 27 72 -12z"/>
<path d="M9015 7850 c-10 -16 7 -31 23 -21 10 6 10 10 -2 20 -10 9 -16 9 -21
1z"/>
<path d="M8088 7161 c-19 -18 -28 -37 -28 -58 0 -33 12 -46 62 -72 42 -21 56
-45 39 -65 -19 -23 -68 -20 -83 4 -7 11 -16 20 -20 20 -15 0 -8 -30 11 -47 50
-46 49 -46 85 -18 60 46 51 96 -22 129 -45 21 -61 48 -42 71 18 22 57 18 70
-5 13 -23 30 -26 30 -5 0 16 -54 76 -67 74 -4 -1 -20 -13 -35 -28z"/>
<path d="M8663 7158 c-26 -12 -37 -40 -34 -83 3 -44 29 -68 68 -62 18 3 35 2
38 -3 10 -16 -14 -49 -40 -56 -28 -7 -34 -24 -9 -24 48 0 84 54 84 124 0 56
-15 91 -47 105 -28 13 -31 13 -60 -1z m75 -67 c4 -37 -12 -61 -39 -61 -47 0
-67 76 -27 104 30 21 62 1 66 -43z"/>
<path d="M9139 7160 c-11 -7 -23 -85 -16 -104 5 -12 13 -13 37 -6 25 7 35 5
51 -11 27 -27 24 -65 -7 -85 -24 -16 -26 -16 -55 5 -23 17 -29 18 -29 7 0 -9
11 -23 25 -32 37 -24 82 -10 102 32 15 31 15 37 0 69 -14 29 -23 36 -57 41
-37 6 -41 9 -38 33 3 23 8 26 46 29 23 2 42 7 42 13 0 10 1 10 -53 12 -22 1
-43 0 -48 -3z"/>
<path d="M9328 7162 c-50 -6 -29 -22 27 -22 40 0 55 -4 55 -14 0 -7 -18 -53
-40 -101 -39 -83 -45 -117 -17 -84 20 22 101 209 93 216 -7 7 -75 10 -118 5z"/>
<path d="M8288 7087 c-63 -99 -63 -101 -3 -107 42 -4 50 -8 53 -27 4 -28 32
-31 32 -4 0 10 7 24 16 32 14 11 14 13 0 21 -12 7 -16 26 -16 83 0 100 -18
101 -82 2z m50 -34 c-3 -42 -6 -48 -27 -51 -40 -6 -45 12 -17 57 35 54 48 52
44 -6z"/>
<path d="M8478 7148 c-35 -12 -36 -28 -3 -28 24 0 24 -2 27 -92 2 -63 7 -93
16 -96 10 -3 12 21 10 109 -2 64 -7 113 -13 115 -5 1 -22 -2 -37 -8z"/>
<path d="M8863 7078 c-29 -45 -50 -85 -47 -90 3 -4 25 -8 50 -8 38 0 46 -3 54
-25 11 -29 30 -33 30 -6 0 10 7 24 15 31 13 11 13 14 0 24 -10 7 -15 34 -17
81 -4 97 -20 96 -85 -7z m55 -25 c-3 -42 -6 -48 -27 -51 -13 -2 -27 0 -32 5
-10 10 37 93 52 93 6 0 9 -21 7 -47z"/>
<path d="M9020 6940 c0 -5 5 -10 10 -10 6 0 10 5 10 10 0 6 -4 10 -10 10 -5 0
-10 -4 -10 -10z"/>
<path d="M6288 6884 c-4 -4 -3 -13 2 -19 7 -9 31 -11 78 -8 72 6 110 23 50 23
-19 0 -55 3 -79 6 -24 3 -47 3 -51 -2z"/>
<path d="M7176 6881 c-11 -17 24 -41 60 -41 31 0 35 3 32 23 -2 18 -10 23 -45
25 -22 2 -44 -1 -47 -7z"/>
<path d="M8671 6264 c-26 -25 -32 -38 -29 -65 3 -29 10 -38 51 -59 26 -14 50
-33 53 -43 14 -43 -51 -64 -83 -27 -20 23 -33 26 -33 7 0 -19 73 -82 78 -67 2
6 15 15 28 20 13 6 29 22 34 36 14 35 -7 67 -59 94 -47 23 -54 33 -46 60 10
33 46 36 70 6 23 -29 35 -33 35 -11 0 8 -15 29 -33 48 l-34 33 -32 -32z"/>
<path d="M8849 6251 c-22 -17 -24 -27 -24 -99 0 -94 16 -122 71 -122 59 0 79
40 72 142 -4 48 -9 65 -27 79 -30 24 -63 24 -92 0z m81 -22 c16 -28 15 -146 0
-164 -18 -21 -57 -19 -70 4 -17 32 -13 142 7 163 22 24 50 23 63 -3z"/>
<path d="M9131 6251 c-37 -37 -39 -150 -5 -199 18 -26 69 -30 100 -8 16 12 19
27 19 101 0 79 -2 88 -24 106 -30 24 -66 24 -90 0z m79 -16 c17 -20 17 -149 1
-169 -18 -22 -58 -20 -71 3 -16 30 -12 133 6 159 17 25 46 29 64 7z"/>
<path d="M9321 6244 c-26 -33 -29 -139 -6 -184 13 -26 21 -30 55 -30 30 0 43
5 55 23 35 54 26 185 -15 207 -33 18 -67 11 -89 -16z m83 -16 c18 -26 22 -129
6 -159 -13 -23 -53 -25 -71 -3 -17 21 -17 148 1 169 18 22 46 19 64 -7z"/>
<path d="M7154 6172 c-23 -15 -23 -40 -1 -46 41 -11 99 -7 93 7 -3 6 -9 20
-12 30 -7 18 -58 24 -80 9z"/>
<path d="M9020 6040 c0 -5 5 -10 10 -10 6 0 10 5 10 10 0 6 -4 10 -10 10 -5 0
-10 -4 -10 -10z"/>
<path d="M7098 5993 c-53 -4 -58 -11 -28 -38 15 -13 42 -19 114 -23 117 -6
146 0 146 32 0 18 -7 25 -31 30 -32 6 -113 6 -201 -1z"/>
<path d="M6420 5981 l-55 -7 50 -7 c105 -17 259 -19 288 -4 28 14 28 15 5 21
-28 7 -212 5 -288 -3z"/>
<path d="M7920 5399 c0 -6 -13 -24 -30 -39 -52 -48 -39 -84 49 -132 32 -18 40
-45 19 -66 -19 -19 -55 -14 -72 10 -12 16 -19 19 -27 11 -11 -11 -10 -13 50
-64 17 -15 21 -14 55 17 20 18 36 42 36 54 0 24 -32 57 -78 82 -35 19 -42 47
-17 68 12 10 21 10 40 2 14 -7 25 -16 25 -22 0 -5 7 -10 15 -10 9 0 12 6 8 17
-9 23 -73 87 -73 72z"/>
<path d="M8293 5354 c-39 -16 -45 -37 -8 -28 l24 6 3 -96 c2 -53 7 -97 13 -99
12 -2 20 213 8 223 -4 4 -23 1 -40 -6z"/>
<path d="M8476 5287 c-31 -47 -56 -88 -56 -91 0 -3 23 -6 52 -8 46 -3 53 -6
58 -27 8 -34 30 -39 30 -7 0 15 7 29 15 33 14 5 14 7 1 22 -9 10 -16 42 -18
85 -2 42 -8 71 -15 73 -6 2 -37 -34 -67 -80z m54 -27 c0 -33 -4 -50 -12 -51
-18 -2 -52 2 -57 7 -6 6 49 94 59 94 6 0 10 -22 10 -50z"/>
<path d="M8657 5363 c-3 -5 -7 -30 -8 -58 l-4 -50 38 3 c48 4 67 -11 67 -52 0
-54 -43 -74 -82 -39 -25 22 -36 8 -13 -17 42 -47 125 -10 125 55 0 44 -20 67
-66 74 -69 11 -54 71 18 71 24 0 37 4 33 10 -7 12 -102 14 -108 3z"/>
<path d="M8847 5352 c-20 -22 -22 -55 -5 -82 10 -15 9 -22 -5 -38 -57 -62 53
-142 113 -82 24 24 25 48 3 79 -13 19 -14 28 -5 42 17 27 15 64 -6 82 -25 22
-75 21 -95 -1z m83 -22 c15 -28 -4 -60 -35 -60 -30 0 -46 27 -34 58 11 28 54
30 69 2z m-2 -102 c7 -7 12 -21 12 -33 0 -12 -5 -26 -12 -33 -7 -7 -21 -12
-33 -12 -12 0 -26 5 -33 12 -7 7 -12 21 -12 33 0 12 5 26 12 33 7 7 21 12 33
12 12 0 26 -5 33 -12z"/>
<path d="M9150 5293 c-27 -43 -50 -83 -50 -90 0 -7 19 -13 47 -15 40 -3 48 -7
53 -26 6 -28 24 -31 29 -5 2 10 10 22 18 26 13 8 13 11 -1 26 -9 10 -16 41
-18 85 -2 44 -8 71 -15 73 -7 3 -35 -30 -63 -74z m50 -33 c0 -48 -1 -50 -28
-50 -37 0 -44 8 -30 34 10 20 48 66 55 66 2 0 3 -22 3 -50z"/>
<path d="M9321 5344 c-16 -21 -21 -41 -21 -90 0 -35 5 -75 12 -89 20 -45 96
-46 120 -2 19 35 16 148 -5 180 -24 37 -77 38 -106 1z m84 -14 c14 -15 17 -32
13 -90 -4 -72 -13 -90 -50 -90 -26 0 -40 37 -41 106 -1 88 35 122 78 74z"/>
<path d="M8080 5346 l-25 -14 30 -4 30 -3 3 -90 c4 -123 22 -136 23 -17 1 51
2 99 2 107 0 30 -3 35 -20 35 -10 -1 -29 -7 -43 -14z"/>
<path d="M9020 5140 c0 -5 5 -10 10 -10 6 0 10 5 10 10 0 6 -4 10 -10 10 -5 0
-10 -4 -10 -10z"/>
<path d="M6925 5093 c-38 -2 -85 -5 -104 -9 l-33 -5 37 -20 c31 -17 64 -22
185 -26 179 -7 223 -1 218 30 -3 21 -9 22 -118 27 -63 3 -146 4 -185 3z"/>
<path d="M6243 5073 c9 -2 25 -2 35 0 9 3 1 5 -18 5 -19 0 -27 -2 -17 -5z"/>
<path d="M8668 4470 c-52 -52 -37 -94 51 -142 34 -19 39 -38 15 -62 -22 -22
-41 -20 -69 8 -14 14 -27 21 -30 16 -7 -12 12 -50 25 -50 5 0 16 -7 24 -16 15
-14 19 -13 46 6 65 46 60 96 -15 132 -25 12 -48 30 -51 40 -13 43 55 67 76 28
6 -11 15 -20 20 -20 16 0 12 28 -6 42 -8 7 -23 21 -32 31 -20 21 -21 21 -54
-13z"/>
<path d="M8853 4462 c-33 -21 -44 -127 -19 -187 25 -58 104 -58 126 1 22 58 8
165 -24 186 -14 10 -68 10 -83 0z m78 -34 c14 -26 17 -100 6 -140 -9 -35 -42
-45 -68 -22 -15 13 -19 31 -19 81 0 35 5 73 10 84 15 26 56 25 71 -3z"/>
<path d="M9128 4453 c-9 -10 -19 -37 -23 -60 -19 -120 46 -201 116 -144 22 18
24 27 24 106 0 74 -3 89 -19 101 -27 19 -80 18 -98 -3z m80 -15 c19 -19 16
-153 -4 -172 -39 -40 -74 1 -74 87 0 32 5 67 10 78 12 21 50 25 68 7z"/>
<path d="M9320 4450 c-16 -16 -20 -33 -20 -95 0 -67 3 -79 25 -100 29 -30 68
-32 94 -6 36 36 39 164 3 204 -21 24 -77 22 -102 -3z m90 -26 c17 -44 12 -129
-9 -155 -16 -20 -22 -22 -43 -12 -29 13 -39 56 -32 125 6 51 19 68 50 68 17 0
28 -8 34 -26z"/>
<path d="M6933 4372 c-24 -2 -33 -8 -33 -21 0 -20 50 -31 136 -31 45 0 58 16
32 37 -16 12 -91 21 -135 15z"/>
<path d="M9025 4250 c-3 -5 -1 -10 4 -10 6 0 11 5 11 10 0 6 -2 10 -4 10 -3 0
-8 -4 -11 -10z"/>
<path d="M6420 4193 c-169 -2 -308 -7 -314 -13 -12 -12 13 -16 184 -29 247
-19 662 -26 688 -12 26 14 29 38 5 45 -32 9 -252 12 -563 9z"/>
<path d="M8671 3573 c-26 -25 -32 -38 -29 -64 2 -27 11 -38 47 -58 61 -36 72
-57 44 -81 -26 -21 -59 -16 -74 11 -5 11 -14 19 -19 19 -16 0 -12 -28 6 -42 8
-7 24 -21 35 -31 19 -17 21 -17 53 8 19 14 36 34 39 45 7 28 -15 63 -52 82
-49 25 -64 42 -56 67 9 28 60 29 75 1 6 -11 15 -20 20 -20 20 0 9 28 -23 61
l-33 34 -33 -32z"/>
<path d="M8863 3568 c-32 -15 -46 -60 -41 -128 7 -95 62 -137 119 -91 19 15
24 30 27 85 5 77 -9 119 -44 135 -29 13 -32 13 -61 -1z m57 -26 c20 -16 22
-27 21 -88 -1 -53 -6 -73 -21 -88 -18 -18 -20 -18 -44 -2 -24 15 -26 22 -26
88 0 52 4 76 17 90 20 22 25 22 53 0z"/>
<path d="M9142 3568 c-29 -14 -46 -78 -38 -143 7 -62 43 -100 85 -90 48 12 56
29 56 121 0 78 -2 87 -24 105 -26 21 -45 23 -79 7z m74 -40 c14 -44 7 -138
-12 -159 -22 -24 -29 -24 -54 1 -16 16 -20 33 -20 81 0 76 12 99 50 99 21 0
31 -6 36 -22z"/>
<path d="M9325 3555 c-22 -21 -25 -33 -25 -97 0 -82 14 -112 56 -122 60 -15
102 58 89 155 -11 81 -72 113 -120 64z m75 -15 c15 -15 20 -33 20 -74 0 -86
-24 -125 -65 -110 -37 15 -43 173 -7 194 24 13 30 12 52 -10z"/>
<path d="M5330 3465 c-42 -9 -135 -14 -265 -15 -110 0 -206 -4 -214 -9 -20
-13 -4 -50 25 -57 48 -12 386 3 444 20 47 14 108 16 410 14 195 -2 378 1 405
5 l50 9 -40 21 c-38 21 -54 22 -395 24 -272 1 -370 -1 -420 -12z"/>
<path d="M6470 3474 c-19 -3 -44 -8 -55 -13 -11 -5 -31 -13 -45 -18 -23 -9
-21 -11 25 -17 28 -4 128 -13 224 -21 156 -12 179 -12 213 2 26 10 38 21 36
32 -3 13 -21 17 -88 22 -166 13 -275 17 -310 13z"/>
<path d="M9020 3350 c0 -5 5 -10 10 -10 6 0 10 5 10 10 0 6 -4 10 -10 10 -5 0
-10 -4 -10 -10z"/>
<path d="M4440 2674 c-34 -34 -42 -72 -21 -97 6 -8 29 -22 50 -32 45 -20 56
-38 41 -66 -14 -25 -55 -25 -77 1 -20 23 -33 26 -33 7 0 -18 73 -82 78 -68 2
6 17 18 33 26 23 13 29 22 29 50 0 35 -15 52 -79 87 -36 20 -41 52 -11 68 23
12 54 0 64 -25 3 -8 10 -15 16 -15 20 0 9 30 -23 63 l-34 33 -33 -32z"/>
<path d="M7872 2675 c-27 -26 -33 -39 -30 -66 2 -27 11 -37 48 -59 34 -20 45
-32 45 -51 0 -33 -39 -38 -69 -10 -22 21 -36 19 -36 -5 0 -7 18 -26 39 -43
l39 -31 37 33 c48 44 46 81 -5 114 -61 38 -72 51 -60 73 14 26 28 25 57 -2 17
-16 26 -19 35 -10 8 8 3 19 -21 42 -17 17 -31 36 -31 41 0 15 -13 8 -48 -26z"/>
<path d="M4623 2668 c-25 -12 -38 -37 -25 -50 5 -5 16 2 26 16 20 31 46 33 70
7 24 -27 15 -49 -49 -125 -30 -35 -51 -66 -48 -70 11 -10 143 -7 143 4 0 6
-22 10 -50 10 -27 0 -50 4 -50 9 0 5 20 33 45 62 33 39 45 61 45 85 0 53 -52
78 -107 52z"/>
<path d="M4802 2659 c-12 -11 -20 -25 -16 -30 4 -6 15 -2 28 10 37 35 76 21
76 -27 0 -17 -8 -27 -30 -35 -38 -14 -38 -23 -1 -30 34 -7 47 -36 31 -67 -13
-25 -56 -27 -82 -3 -25 22 -36 8 -13 -17 27 -30 91 -24 117 11 16 22 17 29 7
52 -7 15 -17 27 -22 27 -5 0 -2 11 7 25 21 33 20 61 -4 85 -26 26 -70 26 -98
-1z"/>
<path d="M5034 2661 c-55 -33 -74 -144 -33 -195 43 -54 123 -23 123 49 0 47
-28 75 -76 75 -21 0 -38 3 -38 6 0 18 24 43 51 53 17 6 28 15 24 21 -9 14 -15
13 -51 -9z m58 -116 c24 -53 -26 -109 -68 -75 -17 15 -19 71 -2 88 21 21 57
14 70 -13z"/>
<path d="M5227 2613 c-66 -103 -69 -110 -52 -117 8 -3 22 -3 30 0 26 11 65 -5
65 -26 0 -26 19 -36 26 -13 3 10 10 26 16 37 7 13 7 21 -1 25 -5 4 -11 40 -13
80 -2 47 -7 76 -15 78 -7 3 -32 -26 -56 -64z m43 -48 c0 -30 -5 -45 -16 -49
-20 -8 -26 -7 -43 3 -12 7 -9 17 13 55 15 26 31 44 37 41 5 -4 9 -26 9 -50z"/>
<path d="M5380 2660 c-28 -28 -14 -48 14 -21 37 35 76 21 76 -27 0 -17 -8 -27
-30 -35 -38 -14 -38 -23 -1 -30 34 -7 47 -36 31 -67 -13 -25 -65 -27 -78 -4
-5 9 -15 15 -22 12 -8 -2 -6 -11 7 -27 24 -29 75 -31 104 -5 20 18 27 84 9 84
-5 0 -10 9 -10 19 0 11 5 23 10 26 17 10 11 54 -10 75 -26 26 -74 26 -100 0z"/>
<path d="M5928 2662 c-28 -31 -98 -141 -98 -151 0 -6 10 -11 23 -12 60 -2 87
-14 87 -39 0 -30 13 -24 31 15 14 29 14 37 3 46 -9 8 -14 34 -14 80 0 73 -8
89 -32 61z m10 -92 c3 -24 -2 -38 -14 -47 -45 -33 -66 0 -34 52 26 43 44 41
48 -5z"/>
<path d="M8241 2654 c-21 -27 -21 -54 2 -82 7 -9 5 -18 -7 -30 -21 -24 -20
-65 2 -85 28 -26 97 -22 116 5 20 29 20 57 0 79 -15 16 -14 20 2 48 18 30 18
31 -2 58 -30 41 -84 44 -113 7z m82 -26 c13 -20 -6 -48 -34 -48 -22 0 -35 36
-18 56 15 18 38 15 52 -8z m7 -123 c0 -33 -30 -49 -58 -29 -12 8 -22 21 -22
29 0 8 10 21 22 29 28 20 58 4 58 -29z"/>
<path d="M8435 2655 c-31 -30 -32 -73 -3 -110 18 -23 27 -26 55 -22 23 4 33 2
33 -7 0 -18 -33 -46 -53 -46 -9 0 -17 -7 -17 -15 0 -33 68 -8 93 35 11 17 17
50 17 84 0 47 -4 61 -25 81 -13 14 -36 25 -50 25 -14 0 -37 -11 -50 -25z m86
-32 c19 -51 -24 -96 -59 -61 -7 7 -12 24 -12 38 0 53 53 70 71 23z"/>
<path d="M8832 2664 c-22 -15 -30 -44 -13 -44 5 0 14 7 21 16 8 8 25 14 39 12
20 -2 27 -9 29 -31 3 -24 -2 -30 -27 -40 -32 -12 -41 -27 -17 -27 27 0 59 -35
52 -57 -10 -30 -41 -35 -72 -11 -34 27 -57 9 -29 -22 24 -27 95 -28 118 -2 20
22 22 73 5 90 -10 10 -10 17 0 32 41 66 -40 130 -106 84z"/>
<path d="M9162 2665 c-60 -26 -84 -144 -41 -199 42 -54 129 -23 129 47 0 51
-24 77 -71 77 -21 0 -39 4 -39 9 0 10 43 47 63 54 8 3 9 8 2 15 -7 7 -20 6
-43 -3z m49 -126 c18 -34 -4 -71 -39 -67 -21 2 -28 9 -30 31 -2 16 -1 35 2 43
8 22 54 17 67 -7z"/>
<path d="M9364 2670 c-53 -21 -85 -111 -64 -176 20 -60 92 -75 129 -28 25 32
26 55 6 94 -13 26 -21 30 -56 30 -33 0 -40 3 -37 18 2 9 18 24 35 32 46 21 34
49 -13 30z m42 -134 c9 -38 1 -61 -24 -64 -31 -5 -52 15 -52 48 0 30 10 38 47
39 16 1 24 -6 29 -23z"/>
<path d="M5688 2659 c-25 -14 -22 -26 5 -25 21 1 22 -3 25 -96 1 -54 7 -98 12
-98 16 0 21 40 18 135 -3 81 -5 90 -23 92 -11 2 -28 -2 -37 -8z"/>
<path d="M8061 2654 c-36 -15 -34 -29 2 -29 21 0 22 -6 27 -90 4 -71 8 -90 20
-90 12 0 16 20 18 113 3 125 2 126 -67 96z"/>
<path d="M8650 2655 c-30 -16 -28 -30 3 -30 21 0 22 -4 25 -92 2 -74 6 -93 17
-93 12 0 15 21 15 115 0 126 -3 132 -60 100z"/>
<path d="M1315 2640 c-3 -5 1 -12 9 -15 9 -3 23 -7 31 -10 10 -3 15 -25 17
-86 2 -53 7 -84 15 -86 9 -3 13 20 15 84 l3 88 28 3 c16 2 27 8 24 15 -5 15
-133 22 -142 7z"/>
<path d="M1540 2643 c-53 -22 -70 -125 -29 -177 42 -53 126 -26 143 47 8 32
-8 100 -28 116 -16 14 -66 22 -86 14z m62 -40 c28 -25 25 -107 -4 -127 -29
-20 -34 -20 -58 4 -39 39 -18 140 28 140 9 0 24 -7 34 -17z"/>
<path d="M1687 2644 c-14 -14 -7 -23 21 -26 27 -3 27 -3 30 -90 2 -68 6 -88
17 -88 11 0 15 20 17 88 l3 87 28 3 c16 2 27 8 24 15 -4 13 -128 22 -140 11z"/>
<path d="M1894 2593 c-9 -27 -25 -68 -36 -92 -11 -28 -15 -48 -9 -54 11 -11
31 -1 31 18 0 7 7 16 16 19 34 13 63 5 82 -21 14 -18 24 -25 30 -18 6 6 -3 43
-26 103 -42 109 -61 119 -88 45z m54 -37 c11 -25 0 -46 -24 -46 -20 0 -25 16
-14 44 12 32 24 33 38 2z"/>
<path d="M2050 2540 l0 -100 60 0 c33 0 60 4 60 10 0 6 -13 10 -29 10 -58 0
-61 5 -61 96 0 68 -3 84 -15 84 -12 0 -15 -18 -15 -100z"/>
<path d="M9010 2454 c0 -17 22 -14 28 4 2 7 -3 12 -12 12 -9 0 -16 -7 -16 -16z"/>
<path d="M5565 2450 c4 -6 11 -8 16 -5 14 9 11 15 -7 15 -8 0 -12 -5 -9 -10z"/>
</g>
</svg>
