<?xml version="1.0" standalone="no"?>
<!DOCTYPE svg PUBLIC "-//W3C//DTD SVG 20010904//EN"
 "http://www.w3.org/TR/2001/REC-SVG-20010904/DTD/svg10.dtd">
<svg version="1.0" xmlns="http://www.w3.org/2000/svg"
 width="513.000000pt" height="470.000000pt" viewBox="0 0 513.000000 470.000000"
 preserveAspectRatio="xMidYMid meet">

<g transform="translate(0.000000,470.000000) scale(0.100000,-0.100000)"
fill="#000000" stroke="none">
<path d="M0 2350 l0 -2350 2565 0 2565 0 0 45 c0 33 -4 45 -15 45 -13 0 -15
261 -15 2290 0 2029 2 2290 15 2290 8 0 15 7 15 15 0 13 -292 15 -2565 15
l-2565 0 0 -2350z m5080 30 l0 -2290 -2535 0 -2535 0 0 2290 0 2290 2535 0
2535 0 0 -2290z"/>
<path d="M1861 4284 c-19 -51 -21 -85 -3 -58 13 20 51 23 61 6 5 -9 12 -14 16
-11 7 8 -34 119 -44 119 -5 0 -18 -25 -30 -56z m42 -4 c4 -15 0 -20 -13 -20
-13 0 -17 5 -13 20 3 11 9 20 13 20 4 0 10 -9 13 -20z"/>
<path d="M2173 4334 c-7 -3 -13 -13 -13 -22 0 -12 3 -13 12 -4 7 7 18 12 25
12 22 0 15 -35 -12 -60 -35 -33 -31 -40 18 -39 29 2 34 3 15 6 -33 5 -35 14
-8 38 40 36 11 89 -37 69z"/>
<path d="M2282 4324 c-29 -20 -31 -88 -4 -103 22 -12 62 11 62 34 0 21 -29 45
-45 39 -8 -4 -15 -1 -15 6 0 6 9 14 20 17 11 3 20 9 20 14 0 13 -13 11 -38 -7z
m33 -69 c0 -28 -29 -25 -33 3 -3 19 0 23 15 20 10 -2 18 -12 18 -23z"/>
<path d="M2453 4334 c-15 -7 -17 -34 -3 -34 6 0 10 5 10 10 0 13 27 13 35 1 3
-6 -8 -25 -25 -44 -16 -19 -30 -37 -30 -40 0 -9 35 -13 60 -6 l25 7 -27 1
c-33 1 -35 11 -8 36 40 36 11 89 -37 69z"/>
<path d="M2552 4328 c-7 -7 -12 -31 -12 -55 0 -55 28 -75 61 -42 17 17 20 29
15 57 -7 48 -37 67 -64 40z m46 -31 c6 -30 -7 -67 -23 -67 -11 0 -15 12 -15
46 0 38 3 45 17 42 10 -2 19 -11 21 -21z"/>
<path d="M2640 4325 c-7 -9 -9 -19 -5 -23 4 -4 10 -1 12 6 6 16 43 16 43 -1 0
-7 -14 -29 -31 -50 l-30 -37 43 1 c30 2 35 3 15 6 l-28 4 26 30 c28 34 31 49
13 67 -17 17 -43 15 -58 -3z"/>
<path d="M2754 4325 c-17 -13 -18 -14 -1 -15 14 0 17 -9 17 -45 0 -25 5 -45
10 -45 12 0 14 107 1 114 -4 3 -17 -1 -27 -9z"/>
<path d="M3221 4284 c-12 -32 -18 -60 -15 -63 4 -3 9 0 11 7 3 6 17 12 33 12
16 0 30 -6 33 -12 2 -7 7 -10 11 -7 8 8 -32 119 -43 119 -5 0 -18 -25 -30 -56z
m42 -4 c4 -15 0 -20 -13 -20 -13 0 -17 5 -13 20 3 11 9 20 13 20 4 0 10 -9 13
-20z"/>
<path d="M3533 4334 c-7 -3 -13 -13 -13 -22 0 -12 3 -13 12 -4 7 7 18 12 25
12 22 0 15 -35 -12 -60 -35 -33 -31 -40 18 -39 29 2 34 3 15 6 -33 5 -35 14
-8 38 40 36 11 89 -37 69z"/>
<path d="M3636 4321 c-12 -13 -16 -32 -14 -58 2 -31 7 -39 26 -41 26 -4 52 13
52 34 0 20 -29 44 -45 38 -8 -4 -15 -1 -15 6 0 6 9 14 20 17 11 3 20 9 20 14
0 16 -26 10 -44 -10z m39 -66 c0 -28 -29 -25 -33 3 -3 19 0 23 15 20 10 -2 18
-12 18 -23z"/>
<path d="M3813 4334 c-15 -7 -17 -34 -3 -34 6 0 10 5 10 10 0 13 27 13 35 1 3
-6 -8 -25 -25 -44 -16 -19 -30 -37 -30 -41 0 -3 19 -5 43 -5 29 2 34 3 15 6
-33 5 -35 14 -8 38 40 36 11 89 -37 69z"/>
<path d="M3900 4321 c-25 -48 -2 -105 41 -99 21 3 24 9 27 46 2 24 -2 50 -9
58 -16 20 -46 17 -59 -5z m50 -47 c0 -38 -3 -45 -17 -42 -32 6 -30 88 2 88 11
0 15 -11 15 -46z"/>
<path d="M4000 4325 c-7 -9 -9 -19 -5 -23 4 -4 10 -1 12 6 6 16 43 16 43 -1 0
-7 -14 -29 -31 -50 l-30 -37 43 1 c30 2 35 3 15 6 l-28 4 26 30 c28 34 31 49
13 67 -17 17 -43 15 -58 -3z"/>
<path d="M4114 4325 c-17 -13 -18 -14 -1 -15 14 0 17 -9 17 -45 0 -25 5 -45
10 -45 12 0 14 107 1 114 -4 3 -17 -1 -27 -9z"/>
<path d="M1960 4242 c0 -39 4 -61 10 -57 6 3 10 12 10 20 0 7 10 15 23 17 16
2 23 11 25 32 4 34 -10 51 -43 51 -24 1 -25 -2 -25 -63z m50 18 c0 -19 -5 -30
-14 -30 -17 0 -28 24 -20 45 11 27 34 17 34 -15z"/>
<path d="M2059 4300 c-4 -31 -2 -73 3 -77 5 -2 8 10 8 27 0 18 6 33 15 36 22
9 18 23 -5 21 -11 -1 -20 -4 -21 -7z"/>
<path d="M3320 4242 c0 -38 4 -61 10 -57 5 3 7 12 4 20 -4 9 3 15 23 17 22 2
29 9 31 32 4 34 -10 51 -43 51 -24 1 -25 -2 -25 -63z m53 36 c6 -20 -4 -48
-18 -48 -16 0 -26 25 -19 45 7 18 31 20 37 3z"/>
<path d="M3419 4300 c-4 -31 -2 -73 3 -77 5 -2 8 10 8 27 0 18 6 33 15 36 22
9 18 23 -5 21 -11 -1 -20 -4 -21 -7z"/>
<path d="M2356 4214 c-4 -9 -4 -19 -1 -22 2 -3 7 3 11 12 4 9 4 19 1 22 -2 3
-7 -3 -11 -12z"/>
<path d="M3716 4214 c-4 -9 -4 -19 -1 -22 2 -3 7 3 11 12 4 9 4 19 1 22 -2 3
-7 -3 -11 -12z"/>
<path d="M4238 3650 c-26 -24 -22 -46 13 -71 22 -16 28 -24 20 -32 -9 -9 -17
-8 -32 1 -30 19 -33 9 -8 -20 l22 -25 24 20 c31 27 29 44 -7 65 -31 17 -38 36
-19 47 6 4 16 -1 24 -11 7 -11 16 -16 20 -13 3 4 -4 18 -17 31 -22 24 -24 24
-40 8z"/>
<path d="M610 3641 c-10 -21 -8 -24 34 -46 29 -15 31 -35 4 -35 -13 0 -30 6
-37 13 -11 10 -13 9 -9 -3 3 -10 17 -15 39 -15 27 0 34 4 34 20 0 12 -11 25
-27 33 -16 7 -28 20 -28 28 0 17 31 19 48 2 8 -8 12 -8 12 -1 0 12 -23 23 -45
23 -8 0 -19 -9 -25 -19z"/>
<path d="M704 3610 l1 -55 35 0 35 0 1 55 1 55 -6 -50 c-5 -45 -8 -50 -31 -50
-23 0 -26 5 -31 50 l-6 50 1 -55z"/>
<path d="M808 3643 c-2 -10 -1 -35 1 -56 3 -36 5 -38 35 -35 29 3 31 6 32 43
0 22 -4 46 -9 53 -14 18 -55 15 -59 -5z m52 -13 c0 -13 -7 -20 -20 -20 -13 0
-20 7 -20 20 0 13 7 20 20 20 13 0 20 -7 20 -20z m5 -50 c0 -8 -10 -16 -22
-18 -18 -3 -23 2 -23 18 0 16 5 21 23 18 12 -2 22 -10 22 -18z"/>
<path d="M910 3645 c-15 -18 -1 -40 31 -50 10 -4 19 -13 19 -21 0 -17 -31 -18
-49 -1 -11 10 -13 9 -9 -3 3 -10 17 -15 39 -15 27 0 34 4 34 20 0 12 -11 25
-27 33 -32 15 -37 42 -8 42 11 0 20 -4 20 -10 0 -5 5 -10 11 -10 8 0 8 5 -1
15 -7 8 -20 15 -30 15 -10 0 -23 -7 -30 -15z"/>
<path d="M1011 3646 c-7 -8 -11 -32 -9 -53 3 -36 5 -38 37 -38 20 0 36 6 39
13 3 11 0 11 -16 1 -31 -19 -54 -5 -50 32 4 43 32 61 52 34 9 -11 16 -15 16
-9 1 30 -49 45 -69 20z"/>
<path d="M1111 3603 c1 -32 4 -48 6 -35 5 28 26 28 44 1 13 -19 14 -17 16 28
2 50 -7 63 -44 63 -21 0 -23 -4 -22 -57z m56 31 c6 -16 -12 -34 -34 -34 -7 0
-13 11 -13 25 0 18 5 25 20 25 11 0 23 -7 27 -16z"/>
<path d="M1213 3605 c0 -33 2 -45 4 -27 2 18 2 45 0 60 -2 15 -4 0 -4 -33z"/>
<path d="M1251 3603 c1 -32 4 -48 6 -36 3 15 13 23 30 25 58 7 51 68 -8 68
-29 0 -29 -1 -28 -57z m54 22 c0 -13 -8 -21 -22 -23 -19 -3 -23 1 -23 23 0 22
4 26 23 23 14 -2 22 -10 22 -23z"/>
<path d="M1357 3653 c19 -4 23 -12 26 -56 l3 -52 2 52 c2 45 5 52 25 56 12 2
0 4 -28 4 -27 0 -40 -2 -28 -4z"/>
<path d="M1453 3605 c0 -33 2 -45 4 -27 2 18 2 45 0 60 -2 15 -4 0 -4 -33z"/>
<path d="M1502 3648 c-13 -13 -16 -56 -6 -82 4 -10 18 -16 35 -16 37 0 57 37
43 78 -10 30 -50 42 -72 20z m53 -43 c0 -31 -4 -41 -19 -43 -32 -7 -50 50 -24
76 24 24 43 9 43 -33z"/>
<path d="M1600 3605 c0 -62 17 -75 22 -17 l3 37 23 -37 c13 -21 28 -38 33 -38
5 0 8 26 7 58 l-1 57 -6 -45 -6 -45 -29 43 c-16 23 -33 42 -37 42 -5 0 -9 -25
-9 -55z"/>
<path d="M1719 3644 c-14 -17 -5 -28 47 -61 19 -11 19 -11 0 -19 -11 -4 -27
-2 -38 5 -16 10 -19 10 -16 -1 3 -7 19 -13 39 -13 46 0 51 28 10 50 -35 18
-41 45 -11 45 11 0 20 -4 20 -10 0 -5 5 -10 11 -10 8 0 8 5 -1 15 -16 20 -44
19 -61 -1z"/>
<path d="M4345 3613 c-32 -47 -32 -63 0 -63 16 0 25 -6 25 -15 0 -8 5 -15 10
-15 6 0 10 6 10 14 0 8 6 17 13 20 10 5 10 7 0 12 -7 3 -13 23 -13 45 0 49
-12 49 -45 2z m25 -23 c0 -11 -7 -20 -15 -20 -13 0 -14 4 -5 20 6 11 13 20 15
20 3 0 5 -9 5 -20z"/>
<path d="M4428 3625 c-18 -39 0 -99 31 -103 43 -6 67 59 41 109 -16 28 -58 25
-72 -6z m62 -30 c0 -33 -10 -55 -25 -55 -25 0 -35 66 -13 88 16 16 38 -3 38
-33z"/>
<path d="M4592 3638 c-15 -15 -16 -72 -2 -99 13 -23 43 -25 60 -4 14 16 17 85
6 104 -9 15 -49 14 -64 -1z m46 -52 c3 -41 1 -47 -15 -44 -19 3 -30 55 -19 85
12 29 31 6 34 -41z"/>
<path d="M4694 3626 c-9 -38 0 -88 19 -100 38 -24 69 35 53 100 -5 19 -13 24
-36 24 -23 0 -31 -5 -36 -24z m54 -39 c3 -42 1 -47 -17 -47 -18 0 -21 6 -21
43 0 24 3 47 7 51 16 15 28 -3 31 -47z"/>
<path d="M425 3629 c-4 -6 -4 -13 -1 -16 3 -4 6 -1 6 5 0 6 7 9 17 5 11 -4 14
-3 9 5 -9 15 -23 15 -31 1z"/>
<path d="M438 3583 c7 -3 16 -2 19 1 4 3 -2 6 -13 5 -11 0 -14 -3 -6 -6z"/>
<path d="M4535 3530 c4 -6 11 -8 16 -5 14 9 11 15 -7 15 -8 0 -12 -5 -9 -10z"/>
<path d="M4137 3164 c-22 -30 -17 -50 18 -66 28 -13 34 -48 9 -48 -9 0 -23 8
-30 18 -11 14 -13 14 -14 2 0 -9 8 -23 19 -31 16 -15 20 -15 41 1 28 21 23 51
-13 68 -28 14 -35 36 -15 48 6 4 17 -1 24 -11 8 -10 17 -16 20 -12 6 6 -26 56
-36 56 -3 0 -13 -11 -23 -25z"/>
<path d="M4232 3158 c-28 -28 -2 -88 33 -74 23 8 18 -11 -7 -28 -18 -13 -19
-16 -6 -16 28 0 48 29 48 69 0 40 -14 61 -40 61 -9 0 -21 -5 -28 -12z m48 -18
c13 -25 5 -40 -20 -40 -22 0 -30 19 -18 43 12 23 25 22 38 -3z"/>
<path d="M4353 3160 c-28 -11 -31 -24 -4 -15 18 5 20 0 24 -52 l3 -58 2 68 c1
37 1 67 0 66 -2 0 -13 -4 -25 -9z"/>
<path d="M4442 3158 c-21 -21 -13 -32 8 -13 19 17 22 17 36 3 14 -13 12 -20
-20 -61 l-36 -47 48 2 c36 1 40 2 15 5 -18 2 -33 7 -33 10 0 3 11 18 25 35 14
16 25 35 25 42 0 17 -21 36 -40 36 -9 0 -21 -5 -28 -12z"/>
<path d="M4594 3157 c-3 -8 -4 -36 -2 -63 3 -45 5 -49 30 -52 37 -4 55 33 42
86 -7 30 -14 38 -37 40 -17 2 -29 -2 -33 -11z m51 -53 c0 -42 -3 -49 -20 -49
-16 0 -21 8 -23 44 -2 28 1 47 10 52 24 16 33 3 33 -47z"/>
<path d="M4702 3158 c-13 -13 -16 -75 -6 -102 7 -19 45 -21 62 -4 16 16 16 90
0 106 -7 7 -19 12 -28 12 -9 0 -21 -5 -28 -12z m49 -32 c9 -33 -5 -76 -25 -76
-25 0 -35 55 -15 91 14 26 31 20 40 -15z"/>
<path d="M4359 2689 c-9 -9 -19 -21 -23 -28 -9 -14 20 -51 39 -51 7 0 16 -7
19 -15 8 -21 -22 -31 -45 -16 -25 15 -24 0 1 -22 19 -16 21 -16 40 0 28 25 25
50 -10 68 -16 9 -30 22 -30 30 0 18 37 20 43 3 2 -7 8 -9 13 -5 5 5 2 14 -7
20 -9 7 -18 17 -20 22 -2 7 -11 4 -20 -6z"/>
<path d="M4446 2674 c-33 -32 -12 -124 28 -124 23 0 36 24 36 70 0 65 -29 89
-64 54z m49 -54 c0 -39 -3 -45 -22 -48 -21 -3 -23 0 -23 48 0 48 2 51 23 48
19 -3 22 -9 22 -48z"/>
<path d="M4606 2677 c-24 -17 -26 -92 -3 -114 40 -40 88 40 56 96 -18 31 -30
35 -53 18z m39 -57 c0 -38 -3 -45 -20 -45 -15 0 -21 8 -23 33 -4 45 4 64 25
60 14 -3 18 -13 18 -48z"/>
<path d="M4708 2679 c-21 -12 -25 -98 -6 -117 18 -18 46 -14 58 7 15 29 12 87
-6 105 -18 19 -23 19 -46 5z m44 -34 c8 -41 -2 -75 -22 -75 -23 0 -34 31 -25
70 8 38 41 41 47 5z"/>
<path d="M4540 2559 c0 -5 5 -7 10 -4 6 3 10 8 10 11 0 2 -4 4 -10 4 -5 0 -10
-5 -10 -11z"/>
<path d="M4038 2201 c-26 -26 -22 -50 12 -69 30 -17 36 -42 14 -49 -7 -2 -19
3 -28 12 -11 11 -16 12 -16 4 0 -7 8 -20 17 -29 16 -15 19 -15 40 4 32 27 29
43 -11 67 -22 13 -33 26 -29 35 7 19 30 18 42 -3 5 -10 12 -15 16 -12 3 4 -4
18 -17 32 -22 24 -24 25 -40 8z"/>
<path d="M4134 2185 c-18 -14 -18 -14 3 -8 20 5 22 1 26 -53 l3 -59 2 68 c2
70 -2 76 -34 52z"/>
<path d="M4239 2184 c-17 -20 -18 -89 -2 -105 7 -7 23 -9 37 -5 21 5 26 13 26
36 0 30 -24 51 -47 43 -25 -9 -13 17 15 31 24 14 25 15 6 16 -12 0 -28 -7 -35
-16z m46 -74 c0 -16 -6 -26 -18 -28 -19 -4 -32 20 -23 44 9 25 41 13 41 -16z"/>
<path d="M4335 2180 c-4 -12 -1 -27 5 -35 9 -11 9 -15 1 -15 -15 0 -14 -33 1
-48 29 -29 82 3 61 37 -7 11 -8 23 -1 35 13 22 -7 46 -38 46 -14 0 -25 -8 -29
-20z m53 -12 c-2 -13 -10 -23 -18 -23 -8 0 -16 10 -18 23 -3 17 2 22 18 22 16
0 21 -5 18 -22z m5 -52 c9 -22 -19 -42 -37 -26 -19 15 -10 40 14 40 10 0 20
-6 23 -14z"/>
<path d="M4444 2186 c-3 -9 -3 -23 0 -31 3 -9 0 -25 -6 -35 -18 -28 10 -55 46
-46 24 6 25 10 23 64 -2 54 -3 57 -30 60 -18 2 -29 -2 -33 -12z m49 -10 c7
-18 -1 -26 -25 -26 -18 0 -25 20 -11 33 11 12 31 8 36 -7z m2 -71 c0 -30 -39
-27 -43 3 -3 20 0 23 20 20 15 -2 23 -10 23 -23z"/>
<path d="M4595 2190 c-4 -6 -7 -31 -7 -55 0 -54 6 -65 37 -65 27 0 45 26 45
65 0 14 -5 35 -10 46 -11 20 -54 26 -65 9z m53 -49 c4 -48 -6 -65 -31 -55 -12
4 -17 18 -17 48 0 47 6 58 30 54 10 -2 16 -17 18 -47z"/>
<path d="M4701 2186 c-18 -21 -10 -97 12 -110 28 -18 52 4 55 53 3 46 -10 71
-38 71 -10 0 -23 -6 -29 -14z m44 -50 c0 -54 -17 -71 -35 -36 -17 31 -4 92 18
88 13 -3 17 -14 17 -52z"/>
<path d="M4540 2080 c0 -5 5 -10 11 -10 5 0 7 5 4 10 -3 6 -8 10 -11 10 -2 0
-4 -4 -4 -10z"/>
<path d="M4352 1713 c-29 -33 -28 -40 12 -64 22 -13 33 -26 29 -35 -6 -17 -40
-19 -46 -1 -2 6 -8 9 -12 4 -5 -4 1 -16 13 -27 22 -21 22 -21 43 -1 27 25 21
52 -14 69 -28 14 -35 36 -15 48 6 4 17 -1 24 -11 8 -10 17 -16 20 -12 3 3 -2
17 -13 30 l-19 25 -22 -25z"/>
<path d="M4440 1701 c-18 -35 -12 -88 12 -105 35 -25 58 -5 58 52 0 27 -5 53
-12 60 -18 18 -46 14 -58 -7z m48 -3 c14 -14 16 -67 3 -87 -18 -28 -41 -4 -41
42 0 56 12 71 38 45z"/>
<path d="M4602 1711 c-15 -9 -20 -90 -8 -109 4 -7 18 -12 32 -12 34 0 50 38
38 88 -9 38 -34 52 -62 33z m43 -57 c0 -42 -3 -49 -20 -49 -16 0 -21 8 -23 38
-3 39 12 71 32 64 6 -2 11 -26 11 -53z"/>
<path d="M4702 1708 c-13 -13 -16 -75 -6 -102 4 -9 18 -16 34 -16 32 0 40 14
40 69 0 40 -14 61 -40 61 -9 0 -21 -5 -28 -12z m49 -37 c9 -43 1 -71 -21 -71
-29 0 -40 52 -19 91 14 28 32 19 40 -20z"/>
<path d="M4351 1229 c-28 -26 -27 -37 9 -57 34 -19 41 -52 11 -52 -11 0 -21 6
-24 13 -2 6 -8 9 -13 4 -4 -4 2 -17 14 -29 21 -21 22 -21 42 -3 29 26 25 52
-10 70 -16 9 -30 22 -30 30 0 18 37 20 43 3 2 -7 8 -10 12 -5 5 4 -1 16 -12
26 -20 19 -21 19 -42 0z"/>
<path d="M4460 1232 c-22 -7 -30 -23 -30 -60 0 -42 16 -72 38 -72 30 0 42 21
42 72 0 49 -18 71 -50 60z m35 -62 c0 -39 -3 -45 -22 -48 -21 -3 -23 1 -23 41
0 48 6 59 30 55 11 -2 15 -16 15 -48z"/>
<path d="M4606 1227 c-23 -17 -26 -92 -4 -113 24 -25 56 -9 64 31 11 62 -23
109 -60 82z m42 -50 c4 -45 -13 -73 -34 -56 -14 12 -19 80 -7 93 18 17 38 -1
41 -37z"/>
<path d="M4708 1229 c-21 -12 -25 -98 -6 -117 18 -18 46 -14 58 7 15 29 12 87
-6 105 -18 19 -23 19 -46 5z m44 -31 c4 -67 -16 -103 -39 -71 -25 33 -13 93
18 93 13 0 20 -8 21 -22z"/>
<path d="M2168 748 c-25 -31 -22 -46 12 -66 33 -19 39 -39 14 -49 -11 -4 -22
1 -30 12 -11 14 -14 15 -14 4 0 -8 8 -21 18 -30 16 -14 20 -13 41 7 28 26 23
50 -14 64 -26 10 -33 34 -13 46 6 4 17 -1 24 -11 8 -10 17 -15 21 -11 4 3 -4
18 -18 31 l-24 24 -17 -21z"/>
<path d="M4027 750 c-25 -25 -22 -59 8 -70 25 -9 33 -34 16 -45 -5 -3 -17 2
-26 11 -9 9 -19 13 -22 10 -4 -4 4 -17 18 -30 l24 -23 23 24 c25 27 17 57 -18
68 -23 7 -27 35 -5 35 8 0 15 -4 15 -10 0 -5 5 -10 10 -10 16 0 11 24 -8 41
-16 13 -19 13 -35 -1z"/>
<path d="M2256 735 c-3 -8 -1 -15 4 -15 6 0 10 5 10 10 0 6 9 10 20 10 28 0
27 -38 -2 -49 l-22 -8 22 -5 c25 -7 29 -36 7 -44 -8 -4 -23 0 -32 7 -14 12
-16 12 -11 -1 7 -21 52 -24 68 -5 10 12 11 21 3 34 -7 11 -8 23 -1 35 6 12 6
22 -2 32 -16 18 -56 18 -64 -1z"/>
<path d="M2367 744 c-14 -14 -7 -26 8 -14 18 15 45 6 45 -14 0 -8 -10 -18 -22
-22 l-23 -7 23 -8 c25 -10 29 -37 7 -45 -8 -4 -23 0 -32 7 -14 12 -16 12 -11
-1 6 -21 52 -24 67 -6 8 10 10 23 5 33 -4 10 -8 32 -8 48 -1 24 -6 31 -26 33
-14 2 -29 0 -33 -4z"/>
<path d="M2472 738 c-15 -15 -16 -90 0 -106 7 -7 22 -12 35 -12 26 0 36 26 31
86 -3 33 -7 39 -28 42 -14 2 -31 -3 -38 -10z m52 -14 c17 -44 0 -101 -28 -91
-11 5 -16 19 -16 50 0 24 3 47 7 50 11 12 31 7 37 -9z"/>
<path d="M2569 723 c-7 -18 -8 -41 -2 -63 6 -28 13 -36 36 -38 32 -4 47 24 41
77 -6 45 -11 51 -40 51 -17 0 -28 -8 -35 -27z m56 -38 c0 -43 -3 -50 -20 -50
-16 0 -21 8 -23 39 -4 49 3 68 25 64 14 -3 18 -14 18 -53z"/>
<path d="M2726 734 c-3 -9 -6 -31 -6 -49 0 -48 9 -65 36 -65 26 0 44 26 44 65
0 14 -5 35 -10 46 -13 23 -55 25 -64 3z m52 -47 c2 -37 -1 -49 -13 -54 -21 -7
-35 12 -35 49 0 39 10 59 29 56 11 -2 17 -16 19 -51z"/>
<path d="M2829 723 c-7 -18 -8 -41 -2 -63 7 -30 12 -35 38 -35 26 0 31 5 38
35 12 50 -5 90 -38 90 -19 0 -28 -7 -36 -27z m56 -38 c0 -43 -3 -50 -20 -50
-16 0 -21 8 -23 39 -4 49 3 68 25 64 14 -3 18 -14 18 -53z"/>
<path d="M4110 735 c-19 -22 -3 -31 19 -11 15 14 20 14 30 2 9 -11 7 -20 -11
-42 -55 -69 -55 -64 -4 -64 25 0 46 5 46 10 0 6 -11 10 -25 10 l-24 0 24 36
c19 28 22 40 14 55 -12 23 -52 25 -69 4z"/>
<path d="M4243 744 c-20 -9 -35 -68 -24 -98 20 -52 93 -19 76 34 -6 19 -16 24
-42 21 -21 -3 -15 20 7 26 11 3 20 9 20 14 0 10 -17 11 -37 3z m32 -79 c0 -11
-7 -21 -16 -23 -18 -3 -33 23 -23 39 10 17 39 5 39 -16z"/>
<path d="M4346 710 c-32 -49 -33 -60 -1 -60 16 0 25 -6 25 -15 0 -8 5 -15 10
-15 6 0 10 7 10 15 0 8 5 15 12 15 9 0 9 3 0 12 -7 7 -12 29 -12 50 0 21 -4
38 -9 38 -4 0 -20 -18 -35 -40z m20 -36 c-3 -8 -10 -12 -16 -9 -7 4 -6 14 2
28 12 24 24 8 14 -19z"/>
<path d="M4430 731 c-25 -47 -5 -111 35 -111 27 0 45 25 45 65 0 40 -18 65
-45 65 -14 0 -29 -8 -35 -19z m60 -48 c0 -36 -25 -57 -41 -32 -13 20 -11 63 3
77 18 18 38 -5 38 -45z"/>
<path d="M4592 738 c-17 -17 -15 -93 2 -108 8 -6 25 -10 38 -8 17 2 24 11 28
38 9 54 -2 85 -30 88 -14 2 -31 -3 -38 -10z m48 -54 c0 -37 -3 -44 -20 -44
-17 0 -20 7 -20 44 0 26 5 46 13 49 21 8 27 -3 27 -49z"/>
<path d="M4694 736 c-11 -28 1 -99 19 -110 38 -24 69 35 53 100 -5 19 -13 24
-37 24 -16 0 -32 -6 -35 -14z m56 -51 c0 -38 -3 -45 -20 -45 -17 0 -20 7 -20
45 0 38 3 45 20 45 17 0 20 -7 20 -45z"/>
<path d="M388 723 c19 -4 22 -11 22 -54 0 -27 5 -49 10 -49 6 0 10 22 10 49 0
39 4 51 18 54 9 3 -5 5 -33 4 -27 0 -40 -2 -27 -4z"/>
<path d="M479 703 c-14 -37 7 -77 42 -81 21 -2 29 3 38 26 18 44 0 82 -39 82
-24 0 -33 -6 -41 -27z m59 5 c30 -30 -1 -94 -33 -68 -25 20 -13 80 15 80 3 0
11 -5 18 -12z"/>
<path d="M588 723 c19 -4 22 -11 22 -54 0 -27 5 -49 10 -49 6 0 10 22 10 49 0
39 4 51 18 54 9 3 -5 5 -33 4 -27 0 -40 -2 -27 -4z"/>
<path d="M686 697 c-23 -56 -28 -77 -18 -77 6 0 12 7 16 15 7 20 36 19 52 -2
7 -10 14 -16 17 -13 7 7 -34 110 -44 110 -5 0 -15 -15 -23 -33z m34 -23 c0 -8
-6 -14 -14 -14 -9 0 -12 7 -9 20 6 22 23 18 23 -6z"/>
<path d="M774 675 l1 -55 40 1 c37 1 38 2 10 8 -28 6 -30 10 -33 54 -4 65 -18
59 -18 -8z"/>
<path d="M2670 630 c0 -5 5 -10 11 -10 5 0 7 5 4 10 -3 6 -8 10 -11 10 -2 0
-4 -4 -4 -10z"/>
<path d="M4530 630 c0 -5 4 -10 9 -10 6 0 13 5 16 10 3 6 -1 10 -9 10 -9 0
-16 -4 -16 -10z"/>
</g>
</svg>
