<svg xmlns="http://www.w3.org/2000/svg" version="1.1" xmlns:xlink="http://www.w3.org/1999/xlink" xmlns:svgjs="http://svgjs.dev/svgjs" width="1000" height="779" viewBox="0 0 1000 779"><g transform="matrix(1,0,0,1,0.2420458876755447,0)"><svg viewBox="0 0 359 280" data-background-color="#0023ff" preserveAspectRatio="xMidYMid meet" height="779" width="1000" xmlns="http://www.w3.org/2000/svg" xmlns:xlink="http://www.w3.org/1999/xlink"><g id="tight-bounds" transform="matrix(1,0,0,1,-0.08689447367552816,0)"><svg viewBox="0 0 359.17378894735106 280" height="280" width="359.17378894735106"><g><svg viewBox="0 0 395.52 308.3343033592952" height="280" width="359.17378894735106"><g><svg viewBox="0 0 395.52 308.3343033592952" height="308.3343033592952" width="395.52"><g><svg viewBox="0 0 395.52 308.3343033592952" height="308.3343033592952" width="395.52"><g><svg viewBox="0 0 395.52 278.2696" height="278.2696" width="395.52"><g transform="matrix(1,0,0,1,112.82643903566117,40.751639420965944)"><svg viewBox="0 0 169.86712192867765 196.76632115806814" height="196.76632115806814" width="169.86712192867765"><g><svg xmlns="http://www.w3.org/2000/svg" xmlns:xlink="http://www.w3.org/1999/xlink" version="1.1" x="0" y="0" viewBox="9.63800048828125 3.246999979019165 80.7239990234375 93.50699615478516" enable-background="new 0 0 100 100" xml:space="preserve" height="196.76632115806814" width="169.86712192867765" class="icon-o-0" data-fill-palette-color="accent" id="o-0"><g fill="#1ebbd7" data-fill-palette-color="accent"><g fill="#1ebbd7" data-fill-palette-color="accent"><polygon points="36.703,11.011 9.638,26.636 9.638,38.757 36.703,23.131 63.767,38.757 63.767,26.636   " fill="#1ebbd7" data-fill-palette-color="accent"></polygon></g><g fill="#1ebbd7" data-fill-palette-color="accent"><polygon points="63.298,89.092 36.233,73.467 36.233,61.348 63.298,76.973 90.362,61.348 90.362,73.467   " fill="#1ebbd7" data-fill-palette-color="accent"></polygon></g><g fill="#1ebbd7" data-fill-palette-color="accent"><polygon points="9.638,42.012 36.703,26.386 47.198,32.446 20.134,48.072 20.134,79.324 9.638,73.264   " fill="#1ebbd7" data-fill-palette-color="accent"></polygon></g><g fill="#1ebbd7" data-fill-palette-color="accent"><polygon points="77.083,18.872 50.018,3.247 39.522,9.307 66.586,24.932 66.586,56.184 77.083,50.124   " fill="#1ebbd7" data-fill-palette-color="accent"></polygon></g><g fill="#1ebbd7" data-fill-palette-color="accent"><polygon points="23.01,81.127 23.011,49.876 33.507,43.816 33.507,75.068 60.571,90.693 50.075,96.754   " fill="#1ebbd7" data-fill-palette-color="accent"></polygon></g><g fill="#1ebbd7" data-fill-palette-color="accent"><polygon points="90.362,58.092 90.362,26.84 79.866,20.78 79.866,52.031 52.802,67.658 63.298,73.719   " fill="#1ebbd7" data-fill-palette-color="accent"></polygon></g></g></svg></g></svg></g><path d="M90.465 103.233L87.74 112.139 62.264 104.345C61.935 104.244 61.722 104.124 61.627 103.984 61.531 103.844 61.545 103.526 61.669 103.031 61.795 102.529 62.031 101.712 62.378 100.579V100.579L85.556 107.671 87.415 101.594 89.979 102.378C90.257 102.463 90.423 102.576 90.477 102.717 90.531 102.859 90.527 103.03 90.465 103.233ZM97.318 89.271V89.271C96.603 90.683 95.836 91.712 95.019 92.359 94.207 93.009 93.351 93.373 92.451 93.451 91.559 93.527 90.632 93.409 89.668 93.099 88.705 92.789 87.718 92.378 86.708 91.867V91.867L69.736 83.269C69.524 83.161 69.4 83.039 69.365 82.903 69.33 82.767 69.416 82.465 69.623 81.998 69.833 81.526 70.217 80.737 70.777 79.633V79.633L88.493 88.608C89.148 88.94 89.76 89.205 90.327 89.403 90.889 89.599 91.417 89.692 91.911 89.683 92.403 89.665 92.851 89.506 93.255 89.206 93.656 88.912 94.024 88.434 94.359 87.773V87.773C94.631 87.235 94.833 86.692 94.963 86.142 95.096 85.586 95.163 85.13 95.165 84.775V84.775L74.322 74.216C74.11 74.108 73.989 73.981 73.96 73.832 73.928 73.69 74.014 73.389 74.218 72.928 74.422 72.467 74.796 71.699 75.34 70.624V70.624L99.045 82.633C99.11 83.192 99.016 84.088 98.764 85.318 98.512 86.548 98.03 87.866 97.318 89.271ZM105.426 65.349L104.488 66.518 98.486 64.288C98.251 64.201 97.834 64.028 97.235 63.769 96.632 63.505 95.934 63.196 95.141 62.84 94.345 62.49 93.524 62.137 92.68 61.783 91.831 61.424 91.047 61.084 90.329 60.762 89.615 60.436 89.04 60.174 88.604 59.977 88.173 59.784 87.958 59.688 87.958 59.688V59.688L85.521 55.964 96.491 60.206C96.941 60.363 97.409 60.548 97.894 60.758 98.388 60.968 98.833 61.164 99.23 61.346 99.621 61.524 99.941 61.67 100.189 61.785 100.437 61.899 100.561 61.956 100.561 61.956V61.956C100.561 61.956 100.474 61.852 100.301 61.645 100.127 61.438 99.915 61.158 99.665 60.804 99.409 60.446 99.127 60.067 98.819 59.667 98.513 59.277 98.234 58.879 97.982 58.474V58.474L91.733 49.363 95.581 50.374C95.581 50.374 95.722 50.564 96.003 50.942 96.29 51.325 96.66 51.821 97.113 52.431 97.562 53.046 98.058 53.723 98.601 54.464 99.139 55.201 99.653 55.915 100.143 56.605 100.629 57.3 101.066 57.914 101.454 58.446 101.837 58.973 102.099 59.362 102.239 59.61V59.61L105.445 64.817C105.578 64.991 105.571 65.168 105.426 65.349ZM104.979 75.873V75.873L83.979 59.03C83.711 58.814 83.596 58.629 83.636 58.474 83.675 58.319 83.753 58.169 83.869 58.025V58.025L85.521 55.964 90.239 59.494 90.533 60.952C90.533 60.952 90.675 61.04 90.958 61.216 91.236 61.388 91.628 61.635 92.134 61.956 92.635 62.273 93.208 62.648 93.854 63.081 94.505 63.518 95.184 63.978 95.892 64.46 96.599 64.943 97.318 65.443 98.048 65.961 98.779 66.479 99.464 66.995 100.104 67.508V67.508L106.645 72.653C106.831 72.802 106.923 72.952 106.921 73.103 106.918 73.254 106.772 73.531 106.482 73.935 106.188 74.344 105.687 74.99 104.979 75.873ZM112.707 66.237V66.237L105.851 60.534C105.227 60 104.583 59.432 103.919 58.832 103.255 58.231 102.601 57.63 101.955 57.027 101.31 56.425 100.693 55.845 100.104 55.288 99.521 54.735 99.011 54.25 98.574 53.832 98.132 53.409 97.787 53.073 97.538 52.822 97.284 52.568 97.157 52.44 97.157 52.44V52.44L95.893 52.699 91.733 49.363C91.597 49.152 91.507 48.978 91.464 48.842 91.421 48.705 91.473 48.544 91.623 48.358V48.358C92.231 47.599 92.664 47.059 92.921 46.739 93.174 46.424 93.329 46.23 93.387 46.158 93.445 46.086 93.474 46.05 93.474 46.05V46.05L114.473 62.893C114.659 63.042 114.755 63.187 114.761 63.328 114.767 63.468 114.621 63.746 114.323 64.16 114.021 64.579 113.482 65.272 112.707 66.237ZM121.999 56.808V56.808L104.748 37.334C104.384 36.923 104.166 36.598 104.096 36.359 104.026 36.121 104.169 35.817 104.524 35.45 104.884 35.078 105.518 34.49 106.425 33.687V33.687L124.275 53.837C124.433 54.015 124.503 54.174 124.485 54.314 124.468 54.454 124.274 54.704 123.905 55.067 123.541 55.424 122.906 56.005 121.999 56.808ZM143.94 41.364L141.596 42.842 132.146 36.064C131.735 35.759 131.208 35.345 130.564 34.819 129.925 34.291 129.225 33.707 128.462 33.069 127.696 32.425 126.949 31.773 126.22 31.113 125.497 30.45 124.824 29.849 124.202 29.31 123.581 28.771 123.087 28.335 122.721 28.002 122.358 27.675 122.177 27.512 122.177 27.512V27.512L119.253 26.784 118.316 24.851 120.651 23.379 129.967 30.019C130.425 30.348 130.989 30.783 131.658 31.324 132.326 31.873 133.031 32.465 133.776 33.1 134.52 33.734 135.246 34.364 135.953 34.99 136.655 35.619 137.305 36.196 137.901 36.72 138.501 37.25 138.979 37.672 139.334 37.988 139.694 38.309 139.873 38.47 139.873 38.47V38.47L143.062 39.394ZM132.449 48.609V48.609L118.092 25.837C117.838 25.434 117.913 25.105 118.316 24.851V24.851L121.133 23.92 123.519 28.673C123.809 28.983 124.14 29.396 124.512 29.913 124.881 30.424 125.278 30.979 125.704 31.58 126.133 32.186 126.562 32.804 126.99 33.433 127.418 34.063 127.827 34.674 128.216 35.266 128.609 35.864 128.964 36.403 129.282 36.883 129.604 37.369 129.855 37.755 130.035 38.04V38.04L135.109 46.087C135.236 46.289 135.279 46.457 135.239 46.592 135.199 46.727 134.979 46.936 134.578 47.22 134.184 47.5 133.474 47.963 132.449 48.609ZM143.94 41.364V41.364L141.081 42.322 138.264 36.961C137.96 36.628 137.626 36.209 137.26 35.704 136.898 35.204 136.519 34.664 136.122 34.085 135.729 33.511 135.333 32.932 134.933 32.347 134.529 31.756 134.147 31.187 133.786 30.64 133.425 30.092 133.091 29.587 132.783 29.124 132.479 28.666 132.228 28.28 132.03 27.967V27.967L127.105 20.155C126.978 19.953 126.935 19.785 126.975 19.65 127.015 19.515 127.247 19.299 127.669 19.001 128.086 18.707 128.785 18.251 129.765 17.633V17.633L144.121 40.405C144.376 40.808 144.315 41.128 143.94 41.364ZM153.565 37.065V37.065C153.372 37.135 153.066 37.232 152.646 37.356 152.232 37.477 151.817 37.586 151.401 37.68V37.68L148.697 9.942C148.619 9.492 148.974 9.123 149.765 8.837V8.837C150.057 8.731 150.351 8.638 150.647 8.559 150.942 8.481 151.198 8.43 151.415 8.408V8.408L167.091 31.401C167.222 31.607 167.214 31.8 167.068 31.98 166.929 32.157 166.522 32.368 165.85 32.611V32.611C165.633 32.69 165.353 32.785 165.013 32.894 164.672 33.003 164.276 33.126 163.825 33.261V33.261L155.482 20.326C155.046 19.59 154.589 18.833 154.11 18.056 153.631 17.279 153.188 16.503 152.781 15.729 152.377 14.945 152.022 14.247 151.715 13.633V13.633C151.897 14.292 152.069 15.057 152.23 15.928 152.388 16.793 152.545 17.673 152.7 18.567 152.856 19.461 152.989 20.335 153.102 21.189V21.189L154.918 35.814C154.949 36.056 154.907 36.261 154.792 36.43 154.671 36.6 154.262 36.812 153.565 37.065ZM161.776 26.821L153.057 29.982 151.94 26.901 160.66 23.741ZM192.533 28.499V28.499C190.774 28.584 189.462 28.382 188.597 27.893 187.725 27.412 187.275 26.88 187.247 26.298V26.298C187.23 25.934 187.282 25.504 187.404 25.008 187.526 24.518 187.723 24.068 187.995 23.657V23.657C188.436 24.007 188.997 24.295 189.677 24.521 190.357 24.753 191.131 24.848 191.997 24.807V24.807C193.286 24.744 194.186 24.366 194.696 23.672 195.199 22.972 195.424 22.07 195.371 20.966V20.966C195.33 20.126 195.141 19.36 194.803 18.667 194.471 17.974 193.875 17.157 193.015 16.218V16.218L188.962 11.751C188.015 10.663 187.341 9.682 186.941 8.806 186.541 7.931 186.319 7.047 186.276 6.154V6.154C186.194 4.448 186.712 3.028 187.831 1.894 188.949 0.76 190.639 0.138 192.9 0.029V0.029C194.791-0.062 196.143 0.062 196.954 0.4 197.76 0.746 198.177 1.219 198.206 1.821V1.821C198.22 2.112 198.17 2.446 198.055 2.823 197.94 3.193 197.733 3.557 197.432 3.916V3.916C197.192 3.742 196.722 3.566 196.025 3.388 195.334 3.216 194.555 3.15 193.689 3.192V3.192C192.585 3.245 191.712 3.503 191.072 3.964 190.438 4.432 190.14 5.06 190.178 5.847V5.847C190.211 6.528 190.387 7.146 190.705 7.7 191.017 8.249 191.467 8.866 192.057 9.554V9.554L196.387 14.206C197.444 15.362 198.174 16.427 198.579 17.401 198.984 18.369 199.214 19.442 199.271 20.619V20.619C199.336 21.961 199.177 23.214 198.796 24.379 198.421 25.544 197.745 26.498 196.767 27.241 195.782 27.991 194.371 28.41 192.533 28.499ZM211.946 28.84V28.84L215.583 1.926C215.583 1.926 215.615 1.911 215.679 1.879 215.75 1.849 215.956 1.857 216.297 1.903V1.903L218.492 2.199C218.826 2.244 219.017 2.29 219.064 2.337 219.112 2.383 219.135 2.406 219.135 2.406V2.406L215.589 28.651C215.561 28.861 215.488 29.004 215.371 29.082 215.253 29.16 214.947 29.178 214.451 29.138 213.949 29.097 213.114 28.998 211.946 28.84ZM223.359 5.923L210.065 4.127 210.424 1.47C210.488 0.998 210.74 0.791 211.179 0.851V0.851L224.483 2.648 224.123 5.315C224.088 5.571 224.018 5.745 223.912 5.837 223.806 5.93 223.622 5.959 223.359 5.923ZM236.587 22.997L233.279 21.93C232.882 21.802 232.687 21.663 232.694 21.512 232.701 21.361 232.757 21.122 232.862 20.795V20.795L237.439 6.6C237.455 6.549 237.511 6.421 237.605 6.215 237.699 6.009 237.894 5.953 238.191 6.049V6.049L241.612 7.152C243.193 7.662 244.431 8.332 245.324 9.163 246.22 9.987 246.745 11.033 246.9 12.3 247.061 13.569 246.848 15.117 246.258 16.944V16.944C245.74 18.551 245.114 19.824 244.381 20.763 243.647 21.701 242.855 22.378 242.005 22.793 241.154 23.207 240.269 23.419 239.348 23.428 238.433 23.439 237.513 23.295 236.587 22.997ZM228.813 32.061V32.061L237.073 6.44C237.073 6.44 237.135 6.335 237.259 6.124 237.382 5.913 237.62 5.865 237.973 5.979V5.979L240.071 6.655C240.399 6.761 240.551 6.935 240.529 7.178 240.506 7.421 240.494 7.543 240.494 7.543V7.543L232.453 32.483C232.38 32.71 232.279 32.851 232.15 32.907 232.02 32.963 231.712 32.926 231.225 32.797 230.745 32.67 229.941 32.424 228.813 32.061ZM238.778 35.357V35.357C238.507 35.27 238.203 35.165 237.867 35.043 237.531 34.92 237.169 34.783 236.78 34.629V34.629C237.382 32.417 237.734 30.527 237.835 28.96 237.946 27.389 237.915 26.113 237.744 25.133 237.573 24.153 237.393 23.431 237.202 22.966 237.004 22.499 236.906 22.265 236.906 22.265V22.265C236.906 22.265 236.9 22.176 236.888 21.998 236.877 21.814 237.035 21.691 237.361 21.629V21.629L239.592 21.149C239.939 21.261 240.136 21.46 240.182 21.746V21.746C240.182 21.746 240.319 22.034 240.593 22.609 240.862 23.176 241.12 24.027 241.365 25.164 241.607 26.292 241.717 27.687 241.696 29.349 241.666 31.016 241.359 32.927 240.775 35.083V35.083C240.695 35.419 240.548 35.615 240.335 35.672 240.129 35.73 239.609 35.625 238.778 35.357ZM239.707 9.856L236.605 19.476 237.994 19.924C238.593 20.117 239.147 20.115 239.656 19.917 240.162 19.726 240.652 19.275 241.124 18.565 241.601 17.863 242.05 16.86 242.47 15.556V15.556C242.777 14.605 242.953 13.778 242.998 13.076 243.044 12.375 242.94 11.802 242.686 11.359 242.427 10.913 241.972 10.586 241.323 10.377V10.377ZM248.898 39.917V39.917C248.72 39.816 248.446 39.647 248.079 39.409 247.717 39.175 247.365 38.931 247.022 38.677V38.677L266.302 18.552C266.592 18.199 267.103 18.229 267.836 18.642V18.642C268.107 18.794 268.368 18.957 268.62 19.13 268.873 19.302 269.078 19.464 269.237 19.614V19.614L262.008 46.487C261.937 46.721 261.786 46.841 261.554 46.847 261.329 46.857 260.904 46.686 260.281 46.335V46.335C260.08 46.221 259.826 46.071 259.521 45.883 259.217 45.696 258.866 45.476 258.469 45.222V45.222L262.845 30.465C263.12 29.654 263.396 28.815 263.673 27.945 263.951 27.075 264.25 26.234 264.573 25.42 264.904 24.603 265.202 23.879 265.468 23.246V23.246C265.087 23.814 264.618 24.442 264.062 25.132 263.509 25.816 262.944 26.508 262.367 27.209 261.79 27.909 261.214 28.58 260.64 29.221V29.221L250.729 40.128C250.565 40.31 250.383 40.412 250.18 40.434 249.971 40.454 249.544 40.281 248.898 39.917ZM262.019 39.472L253.94 34.917 255.55 32.063 263.628 36.617ZM269.599 53.105V53.105L286.859 32.137C286.859 32.137 286.894 32.141 286.966 32.148 287.042 32.16 287.213 32.275 287.479 32.494V32.494L289.189 33.901C289.449 34.115 289.587 34.255 289.603 34.319 289.619 34.383 289.626 34.416 289.626 34.416V34.416L272.796 54.862C272.661 55.026 272.523 55.11 272.383 55.114 272.242 55.118 271.972 54.973 271.571 54.678 271.166 54.378 270.509 53.854 269.599 53.105ZM291.367 39.629L281.009 31.104 282.713 29.034C283.016 28.666 283.339 28.622 283.681 28.904V28.904L294.046 37.436 292.336 39.514C292.172 39.713 292.021 39.825 291.882 39.847 291.743 39.87 291.571 39.798 291.367 39.629ZM288.402 71.824L282.334 64.81 302.694 47.198C302.694 47.198 302.806 47.145 303.029 47.04 303.253 46.934 303.468 47.001 303.676 47.241V47.241L309.874 54.406C309.138 55.042 308.595 55.503 308.246 55.787 307.897 56.072 307.639 56.225 307.474 56.245 307.303 56.271 307.14 56.193 306.984 56.013V56.013L303.138 51.567 287.134 65.41 291.292 70.217C290.536 70.871 289.974 71.339 289.606 71.622 289.243 71.901 288.991 72.05 288.849 72.067 288.707 72.085 288.558 72.004 288.402 71.824ZM297.982 62.5L292.687 56.379 295.196 54.209 300.925 60.833C299.889 61.73 299.193 62.296 298.838 62.534 298.488 62.766 298.203 62.755 297.982 62.5ZM296.891 85.491V85.491C296.187 84.316 295.762 83.22 295.616 82.204 295.47 81.188 295.661 80.174 296.189 79.163 296.721 78.157 297.678 77.094 299.059 75.973 300.44 74.852 302.294 73.594 304.622 72.198V72.198C307.308 70.589 309.593 69.451 311.478 68.784 313.363 68.117 314.948 67.82 316.233 67.891 317.519 67.962 318.605 68.352 319.494 69.062 320.377 69.775 321.157 70.697 321.834 71.827V71.827C322.525 72.98 322.884 73.984 322.911 74.84 322.932 75.699 322.695 76.277 322.201 76.573V76.573C321.861 76.778 321.49 76.938 321.089 77.055 320.686 77.181 320.321 77.28 319.994 77.352V77.352C320.044 76.921 319.998 76.431 319.855 75.884 319.716 75.343 319.491 74.813 319.182 74.297V74.297C318.664 73.434 318.062 72.803 317.376 72.404 316.689 72.005 315.876 71.84 314.937 71.909 314.002 71.983 312.87 72.31 311.543 72.89 310.221 73.466 308.657 74.295 306.852 75.377V75.377C304.955 76.514 303.462 77.494 302.373 78.316 301.284 79.139 300.518 79.856 300.075 80.469 299.635 81.088 299.436 81.663 299.476 82.194 299.514 82.72 299.682 83.232 299.981 83.732V83.732C300.196 84.09 300.411 84.358 300.626 84.538 300.842 84.717 301.042 84.845 301.226 84.92 301.406 84.989 301.544 85.026 301.639 85.03V85.03L309.765 80.161 308.468 77.997 310.461 76.803C310.847 76.571 311.175 76.68 311.444 77.128V77.128L314.083 81.532 301.023 89.313C300.658 89.169 300.235 88.932 299.753 88.604 299.268 88.285 298.784 87.876 298.3 87.379 297.82 86.887 297.351 86.258 296.891 85.491ZM333.956 100.545L314.469 101.384 313.738 99.378 328.64 87.57C328.787 87.432 328.919 87.405 329.034 87.49 329.149 87.575 329.314 87.892 329.528 88.441 329.744 88.996 330.09 89.927 330.566 91.233V91.233L326.041 94.392C325.554 94.738 324.978 95.138 324.312 95.592 323.652 96.043 322.979 96.478 322.293 96.897 321.607 97.316 320.979 97.689 320.408 98.017 319.845 98.349 319.389 98.578 319.041 98.705V98.705C319.408 98.628 319.913 98.535 320.557 98.427 321.207 98.318 321.93 98.202 322.724 98.082 323.519 97.962 324.318 97.854 325.122 97.759 325.929 97.655 326.635 97.592 327.24 97.569V97.569L332.034 97.124C332.251 97.101 332.42 97.138 332.54 97.235 332.66 97.333 332.823 97.626 333.029 98.114 333.232 98.596 333.541 99.407 333.956 100.545ZM305.006 101.806V101.806L317.985 97.081 319.211 100.45 306.904 104.93C306.68 105.012 306.509 105.025 306.39 104.969 306.271 104.914 306.114 104.657 305.92 104.2 305.723 103.736 305.418 102.938 305.006 101.806ZM71.512 188.851L68.741 179.813 94.574 171.894C94.909 171.791 95.156 171.771 95.313 171.833 95.471 171.896 95.639 172.173 95.818 172.665 95.996 173.157 96.261 173.976 96.612 175.122V175.122L73.116 182.326 75.004 188.487 72.403 189.284C72.118 189.372 71.914 189.372 71.791 189.285 71.667 189.198 71.574 189.054 71.512 188.851ZM78.915 206.241V206.241C78.19 204.812 77.806 203.571 77.761 202.518 77.723 201.461 77.94 200.542 78.412 199.761 78.887 198.985 79.539 198.295 80.368 197.689 81.199 197.089 82.126 196.53 83.147 196.013V196.013L100.355 187.287C100.573 187.177 100.748 187.148 100.879 187.2 101.009 187.253 101.204 187.506 101.465 187.961 101.725 188.415 102.138 189.2 102.703 190.316V190.316L84.743 199.423C84.075 199.761 83.494 200.101 82.999 200.441 82.497 200.784 82.104 201.165 81.819 201.584 81.537 201.995 81.398 202.451 81.401 202.954 81.401 203.467 81.57 204.056 81.908 204.724V204.724C82.186 205.273 82.51 205.765 82.88 206.201 83.258 206.64 83.59 206.966 83.876 207.177V207.177L105.007 196.463C105.226 196.352 105.403 196.329 105.54 196.393 105.679 196.463 105.875 196.717 106.126 197.154 106.38 197.596 106.784 198.364 107.338 199.456V199.456L83.31 211.639C82.805 211.36 82.127 210.747 81.275 209.798 80.426 208.856 79.639 207.67 78.915 206.241ZM99.792 225.418L98.841 224.234 102.368 218.778C102.504 218.566 102.769 218.193 103.162 217.656 103.554 217.12 104.011 216.494 104.532 215.779 105.057 215.069 105.589 214.336 106.128 213.58 106.667 212.824 107.175 212.124 107.65 211.479 108.13 210.839 108.513 210.328 108.799 209.945 109.091 209.557 109.237 209.364 109.237 209.364V209.364L113.451 207.775 106.843 217.705C106.592 218.111 106.308 218.534 105.991 218.975 105.675 219.416 105.384 219.811 105.12 220.159 104.855 220.516 104.64 220.803 104.475 221.021 104.31 221.238 104.228 221.347 104.228 221.347V221.347C104.228 221.347 104.348 221.285 104.587 221.16 104.827 221.035 105.152 220.885 105.562 220.708 105.967 220.536 106.4 220.341 106.862 220.123 107.318 219.909 107.776 219.724 108.236 219.567V219.567L118.625 215.375 116.786 218.953C116.786 218.953 116.566 219.054 116.124 219.255 115.683 219.457 115.112 219.712 114.409 220.022 113.702 220.335 112.923 220.676 112.073 221.045 111.227 221.419 110.406 221.772 109.612 222.104 108.813 222.431 108.11 222.729 107.502 222.997 106.893 223.265 106.452 223.44 106.18 223.523V223.523L100.314 225.56C100.116 225.651 99.942 225.604 99.793 225.418ZM89.47 222.667V222.667L110.753 205.574C111.026 205.354 111.235 205.28 111.377 205.352 111.524 205.43 111.656 205.541 111.772 205.685V205.685L113.451 207.775 108.922 211.667 107.413 211.644C107.413 211.644 107.297 211.763 107.063 212.001 106.83 212.239 106.499 212.573 106.071 213.002 105.647 213.436 105.149 213.925 104.576 214.47 104.003 215.015 103.4 215.585 102.765 216.179 102.13 216.774 101.476 217.376 100.802 217.985 100.128 218.594 99.468 219.158 98.823 219.676V219.676L92.292 225.023C92.101 225.177 91.932 225.236 91.785 225.201 91.639 225.166 91.395 224.958 91.055 224.577 90.72 224.202 90.191 223.565 89.47 222.667ZM97.317 232.437V232.437L104.469 226.897C105.131 226.399 105.832 225.887 106.572 225.36 107.313 224.834 108.052 224.317 108.79 223.809 109.533 223.306 110.242 222.825 110.918 222.367 111.594 221.909 112.189 221.507 112.702 221.163 113.216 220.819 113.624 220.55 113.928 220.358 114.236 220.161 114.391 220.062 114.391 220.062V220.062L114.413 218.758 118.625 215.375C118.865 215.284 119.057 215.232 119.2 215.219 119.342 215.206 119.49 215.296 119.644 215.487V215.487C120.261 216.256 120.699 216.8 120.956 217.12 121.217 217.445 121.376 217.644 121.434 217.716 121.493 217.789 121.522 217.825 121.522 217.825V217.825L100.239 234.917C100.048 235.071 99.883 235.135 99.744 235.111 99.606 235.086 99.362 234.878 99.014 234.487 98.67 234.101 98.104 233.418 97.317 232.437ZM108.852 244.211V244.211L126.339 224.456C126.708 224.04 127.009 223.78 127.241 223.677 127.47 223.578 127.793 223.688 128.211 224.005 128.629 224.321 129.296 224.886 130.213 225.698V225.698L112.12 246.137C111.958 246.32 111.806 246.412 111.666 246.411 111.525 246.41 111.25 246.246 110.841 245.919 110.437 245.597 109.774 245.028 108.852 244.211ZM133.436 261.616L131.067 260.122 133.134 248.502C133.231 248 133.381 247.339 133.585 246.52 133.788 245.701 134.014 244.803 134.262 243.825 134.517 242.851 134.785 241.885 135.067 240.928 135.359 239.97 135.617 239.088 135.843 238.283 136.065 237.484 136.246 236.843 136.386 236.36 136.532 235.881 136.605 235.641 136.605 235.641V235.641L135.986 232.657 137.342 230.953 139.71 232.446 137.713 243.864C137.611 244.434 137.458 245.143 137.252 245.991 137.046 246.84 136.816 247.744 136.563 248.703 136.305 249.659 136.042 250.597 135.776 251.517 135.515 252.44 135.273 253.289 135.05 254.064 134.827 254.84 134.647 255.461 134.508 255.93 134.379 256.396 134.314 256.629 134.314 256.629V256.629L134.859 259.954ZM121.785 254.271V254.271L136.342 231.179C136.6 230.771 136.933 230.695 137.342 230.953V230.953L139.425 233.123 136.128 237.383C135.97 237.784 135.736 238.267 135.427 238.831 135.118 239.395 134.781 240.005 134.416 240.659 134.05 241.313 133.674 241.971 133.287 242.635 132.896 243.304 132.514 243.948 132.141 244.565 131.767 245.183 131.429 245.744 131.126 246.25 130.826 246.75 130.583 247.148 130.396 247.445V247.445L125.254 255.601C125.124 255.808 124.989 255.923 124.85 255.945 124.711 255.967 124.424 255.856 123.99 255.614 123.561 255.375 122.826 254.927 121.785 254.271ZM133.436 261.616V261.616L131.319 259.424 134.984 254.504C135.16 254.075 135.4 253.584 135.701 253.031 136 252.484 136.326 251.903 136.682 251.29 137.037 250.677 137.396 250.058 137.758 249.433 138.121 248.809 138.475 248.21 138.82 247.637 139.162 247.07 139.477 246.545 139.766 246.062 140.055 245.579 140.298 245.181 140.496 244.867V244.867L145.489 236.946C145.62 236.739 145.755 236.624 145.894 236.602 146.033 236.58 146.331 236.698 146.787 236.954 147.238 237.207 147.962 237.648 148.959 238.276V238.276L134.402 261.368C134.144 261.777 133.822 261.859 133.436 261.616ZM146.714 267.87V267.87C146.515 267.798 146.211 267.674 145.803 267.498 145.402 267.324 145.007 267.139 144.621 266.943V266.943L160.535 243.578C160.763 243.182 161.278 243.129 162.081 243.42V243.42C162.38 243.528 162.668 243.647 162.945 243.775 163.229 243.906 163.461 244.032 163.642 244.154V244.154L160.929 272.245C160.895 272.493 160.762 272.638 160.528 272.681 160.301 272.725 159.848 272.624 159.17 272.379V272.379C158.946 272.298 158.668 272.19 158.336 272.056 157.998 271.92 157.61 271.758 157.171 271.571V271.571L159.072 256.08C159.213 255.223 159.348 254.336 159.476 253.417 159.61 252.502 159.771 251.609 159.959 250.741 160.147 249.873 160.321 249.098 160.483 248.417V248.417C160.197 249.053 159.835 249.76 159.399 250.538 158.956 251.314 158.505 252.102 158.047 252.9 157.589 253.699 157.128 254.468 156.663 255.208V255.208L148.576 267.773C148.443 267.985 148.275 268.118 148.073 268.172 147.871 268.225 147.418 268.124 146.714 267.87ZM159.761 265.232L150.91 262.028 152.042 258.9 160.893 262.104ZM191.448 278.253V278.253C189.663 278.165 188.357 277.836 187.53 277.266 186.703 276.688 186.304 276.106 186.333 275.517V275.517C186.351 275.147 186.445 274.717 186.615 274.229 186.784 273.746 187.024 273.311 187.335 272.922V272.922C187.746 273.32 188.286 273.667 188.954 273.965 189.615 274.263 190.389 274.433 191.275 274.477V274.477C192.578 274.54 193.52 274.248 194.102 273.601 194.677 272.946 194.993 272.057 195.048 270.933V270.933C195.089 270.08 194.976 269.289 194.706 268.56 194.438 267.825 193.914 266.944 193.136 265.918V265.918L189.489 261.008C188.639 259.819 188.055 258.76 187.736 257.83 187.423 256.907 187.289 255.992 187.333 255.086V255.086C187.418 253.354 188.079 251.971 189.316 250.938 190.553 249.905 192.318 249.445 194.613 249.557V249.557C196.53 249.651 197.879 249.909 198.661 250.332 199.442 250.761 199.817 251.28 199.787 251.888V251.888C199.773 252.186 199.69 252.516 199.54 252.88 199.389 253.251 199.147 253.6 198.813 253.928V253.928C198.577 253.731 198.121 253.507 197.444 253.255 196.76 253.009 195.978 252.865 195.099 252.822V252.822C193.975 252.767 193.071 252.945 192.389 253.355 191.699 253.759 191.335 254.361 191.296 255.161V255.161C191.262 255.855 191.376 256.497 191.639 257.086 191.902 257.669 192.297 258.335 192.824 259.083V259.083L196.739 264.206C197.697 265.485 198.33 266.633 198.638 267.649 198.946 268.665 199.071 269.771 199.013 270.968V270.968C198.946 272.33 198.666 273.579 198.173 274.715 197.673 275.857 196.893 276.753 195.834 277.404 194.775 278.061 193.313 278.344 191.448 278.253ZM214.478 276.981V276.981L210.809 249.681C210.809 249.681 210.839 249.657 210.899 249.609 210.966 249.56 211.17 249.513 211.511 249.467V249.467L213.736 249.168C214.077 249.122 214.276 249.115 214.334 249.147 214.392 249.18 214.421 249.196 214.421 249.196V249.196L217.998 275.817C218.027 276.033 217.995 276.194 217.903 276.3 217.81 276.406 217.513 276.506 217.011 276.601 216.516 276.694 215.672 276.821 214.478 276.981ZM219.501 251.509L206.008 253.322 205.646 250.626C205.581 250.147 205.776 249.877 206.228 249.816V249.816L219.721 248.003 220.083 250.699C220.118 250.962 220.094 251.155 220.011 251.28 219.933 251.397 219.763 251.474 219.501 251.509ZM235.774 260.95L232.418 262.029C232.015 262.158 231.772 262.16 231.69 262.033 231.607 261.907 231.513 261.677 231.405 261.343V261.343L226.777 246.945C226.761 246.895 226.73 246.755 226.684 246.526 226.641 246.304 226.77 246.144 227.073 246.047V246.047L230.542 244.932C232.143 244.417 233.556 244.238 234.781 244.393 236.004 244.542 237.057 245.094 237.941 246.047 238.823 246.995 239.561 248.395 240.157 250.248V250.248C240.68 251.874 240.917 253.293 240.868 254.504 240.824 255.707 240.573 256.734 240.116 257.583 239.659 258.432 239.056 259.13 238.307 259.677 237.557 260.224 236.713 260.648 235.774 260.95ZM234.731 273.019V273.019L226.377 247.032C226.377 247.032 226.365 246.907 226.341 246.658 226.318 246.415 226.487 246.235 226.846 246.12V246.12L228.982 245.433C229.31 245.328 229.535 245.38 229.659 245.591 229.784 245.808 229.847 245.917 229.847 245.917V245.917L237.979 271.214C238.053 271.447 238.055 271.624 237.982 271.745 237.91 271.865 237.635 272.016 237.158 272.197 236.687 272.377 235.878 272.65 234.731 273.019ZM244.899 269.834V269.834C244.615 269.925 244.301 270.019 243.957 270.116 243.606 270.215 243.225 270.317 242.814 270.421V270.421C242.002 268.241 241.173 266.474 240.327 265.119 239.489 263.768 238.71 262.739 237.989 262.032 237.275 261.323 236.697 260.834 236.256 260.566 235.823 260.301 235.607 260.169 235.607 260.169V260.169C235.607 260.169 235.548 260.094 235.43 259.944 235.315 259.801 235.371 259.609 235.6 259.368V259.368L237.154 257.649C237.507 257.535 237.787 257.584 237.994 257.796V257.796C237.994 257.796 238.277 257.952 238.843 258.263 239.403 258.577 240.118 259.126 240.989 259.91 241.86 260.694 242.776 261.78 243.736 263.168 244.703 264.553 245.584 266.308 246.377 268.431V268.431C246.51 268.757 246.506 269.005 246.366 269.175 246.226 269.345 245.737 269.565 244.899 269.834ZM230.569 248.292L233.705 258.048 235.113 257.595C235.725 257.399 236.178 257.069 236.474 256.605 236.779 256.146 236.918 255.485 236.891 254.625 236.871 253.762 236.648 252.669 236.223 251.345V251.345C235.913 250.381 235.567 249.596 235.184 248.988 234.807 248.379 234.383 247.97 233.913 247.76 233.435 247.551 232.866 247.554 232.204 247.766V247.766ZM258.581 263.723V263.723C258.396 263.827 258.104 263.976 257.705 264.171 257.311 264.362 256.913 264.54 256.513 264.705V264.705L249.188 237.401C249.036 236.97 249.332 236.545 250.076 236.126V236.126C250.353 235.97 250.631 235.829 250.909 235.702 251.193 235.573 251.441 235.479 251.651 235.422V235.422L271.17 255.804C271.336 255.992 271.359 256.188 271.239 256.392 271.124 256.594 270.753 256.871 270.124 257.225V257.225C269.916 257.342 269.653 257.482 269.335 257.646 269.012 257.813 268.635 258.002 268.207 258.213V258.213L257.708 246.666C257.15 246 256.566 245.319 255.953 244.623 255.347 243.923 254.776 243.219 254.24 242.51 253.704 241.802 253.231 241.164 252.821 240.597V240.597C253.116 241.229 253.416 241.964 253.721 242.803 254.02 243.645 254.323 244.5 254.629 245.368 254.936 246.236 255.218 247.088 255.475 247.923V247.923L259.722 262.249C259.796 262.488 259.787 262.702 259.696 262.89 259.604 263.078 259.233 263.356 258.581 263.723ZM265.093 252.115L256.89 256.732 255.259 253.834 263.462 249.216ZM282.113 248.442V248.442L264.625 227.16C264.625 227.16 264.638 227.124 264.664 227.051 264.695 226.974 264.843 226.826 265.109 226.608V226.608L266.843 225.183C267.109 224.965 267.275 224.854 267.341 224.851 267.407 224.848 267.44 224.847 267.44 224.847V224.847L284.493 245.599C284.632 245.768 284.69 245.921 284.667 246.06 284.644 246.199 284.444 246.441 284.067 246.785 283.695 247.124 283.044 247.677 282.113 248.442ZM272.977 224.14L262.459 232.783 260.732 230.681C260.425 230.307 260.448 229.976 260.801 229.686V229.686L271.319 221.042 273.046 223.144C273.214 223.349 273.296 223.526 273.29 223.676 273.286 223.817 273.182 223.971 272.977 224.14ZM303.394 227.346L297.227 234.458 276.603 216.576C276.603 216.576 276.532 216.471 276.39 216.26 276.253 216.054 276.291 215.828 276.504 215.583V215.583L282.794 208.329C283.539 208.975 284.08 209.452 284.417 209.762 284.748 210.067 284.938 210.302 284.988 210.467 285.042 210.637 284.991 210.812 284.835 210.992V210.992L280.926 215.501 297.131 229.552 301.353 224.682C302.123 225.35 302.674 225.846 303.007 226.17 303.345 226.498 303.533 226.731 303.571 226.869 303.609 227.007 303.55 227.166 303.394 227.346ZM292.641 219.087L287.268 225.284 284.732 223.086 290.554 216.371C291.599 217.277 292.265 217.894 292.551 218.221 292.836 218.538 292.866 218.827 292.641 219.087ZM314.541 211.379V211.379C313.825 212.57 313.049 213.475 312.214 214.093 311.373 214.708 310.375 215.019 309.219 215.027 308.064 215.035 306.655 214.687 304.994 213.981 303.332 213.276 301.324 212.215 298.97 210.8V210.8C296.246 209.163 294.136 207.662 292.639 206.299 291.139 204.926 290.116 203.647 289.57 202.461 289.024 201.275 288.856 200.116 289.066 198.983 289.281 197.854 289.733 196.716 290.422 195.57V195.57C291.122 194.407 291.849 193.608 292.604 193.174 293.365 192.743 293.995 192.678 294.495 192.978V192.978C294.841 193.186 295.162 193.441 295.46 193.744 295.762 194.049 296.023 194.329 296.241 194.584V194.584C295.833 194.748 295.421 195.022 295.005 195.405 294.586 195.794 294.218 196.253 293.9 196.78V196.78C293.379 197.648 293.1 198.485 293.064 199.29 293.028 200.094 293.267 200.898 293.78 201.702 294.29 202.51 295.122 203.369 296.275 204.279 297.427 205.188 298.917 206.192 300.744 207.29V207.29C302.667 208.446 304.256 209.317 305.512 209.901 306.761 210.483 307.769 210.822 308.537 210.921 309.301 211.025 309.909 210.931 310.363 210.64 310.812 210.354 311.189 209.959 311.493 209.454V209.454C311.711 209.091 311.85 208.769 311.911 208.488 311.968 208.214 311.986 207.978 311.966 207.78 311.946 207.583 311.915 207.441 311.874 207.354V207.354L303.636 202.402 302.316 204.597 300.291 203.38C299.905 203.148 299.85 202.802 300.127 202.342V202.342L302.808 197.883 315.995 205.858C316.036 206.253 316.028 206.747 315.973 207.339 315.913 207.928 315.776 208.553 315.565 209.214 315.349 209.88 315.008 210.602 314.541 211.379ZM300.325 173.366L315.99 185.436 315.247 187.469 295.969 186.903C295.767 186.914 295.65 186.85 295.616 186.711 295.582 186.572 295.663 186.217 295.857 185.646 296.051 185.076 296.391 184.129 296.875 182.804V182.804L302.446 183.297C303.054 183.35 303.762 183.419 304.57 183.503 305.378 183.587 306.185 183.692 306.992 183.817 307.801 183.937 308.531 184.052 309.181 184.163 309.838 184.276 310.343 184.397 310.697 184.527V184.527C310.361 184.347 309.906 184.089 309.331 183.752 308.763 183.418 308.13 183.038 307.432 182.614 306.736 182.184 306.044 181.744 305.356 181.295 304.667 180.846 304.078 180.433 303.588 180.057V180.057L299.584 177.272C299.397 177.147 299.289 177.009 299.26 176.857 299.233 176.699 299.298 176.367 299.455 175.861 299.614 175.348 299.904 174.516 300.325 173.366ZM323.606 191.296V191.296L310.446 186.486 311.698 183.063 324.176 187.625C324.406 187.709 324.549 187.81 324.604 187.929 324.659 188.048 324.612 188.351 324.462 188.839 324.314 189.321 324.029 190.14 323.606 191.296ZM63.081 143.057C63.081 137.145 67.873 132.352 73.785 132.352 79.697 132.352 84.489 137.145 84.489 143.057 84.489 148.969 79.697 153.761 73.785 153.761 67.873 153.761 63.081 148.969 63.081 143.057ZM311.77 143.057C311.77 137.145 316.562 132.352 322.474 132.352 328.386 132.352 333.179 137.145 333.179 143.057 333.179 148.969 328.386 153.761 322.474 153.761 316.562 153.761 311.77 148.969 311.77 143.057Z" fill="#1ebbd7" data-fill-palette-color="primary"></path></svg></g><g transform="matrix(1,0,0,1,75.54432,295.46666128000004)"><svg viewBox="0 0 244.43135999999998 12.867642079295154" height="12.867642079295154" width="244.43135999999998"><g transform="matrix(1,0,0,1,0,0)"><svg width="244.43135999999998" viewBox="4.300000190734863 -37.20000076293945 907.9000244140625 47.80000305175781" height="12.867642079295154" data-palette-color="#4b91f1"><path d="M9.95 0L4.3 0 4.3-34.9 26.1-34.9 26.1-29.9 9.95-29.9 9.95-20.2 24.3-20.2 24.3-15.2 9.95-15.2 9.95 0ZM36.65 0L31.2 0 31.2-26 36.65-26 36.65-21 36.9-21Q37.45-23 39.2-24.5 40.95-26 44.05-26L44.05-26 45.5-26 45.5-20.75 43.35-20.75Q40.1-20.75 38.37-19.7 36.65-18.65 36.65-16.6L36.65-16.6 36.65 0ZM60.3 0.6L60.3 0.6Q57.6 0.6 55.37-0.35 53.15-1.3 51.6-3.08 50.05-4.85 49.2-7.38 48.35-9.9 48.35-13L48.35-13Q48.35-16.1 49.2-18.63 50.05-21.15 51.6-22.93 53.15-24.7 55.37-25.65 57.6-26.6 60.3-26.6L60.3-26.6Q63-26.6 65.22-25.65 67.45-24.7 69-22.93 70.55-21.15 71.4-18.63 72.25-16.1 72.25-13L72.25-13Q72.25-9.9 71.4-7.38 70.55-4.85 69-3.08 67.45-1.3 65.22-0.35 63 0.6 60.3 0.6ZM60.3-3.9L60.3-3.9Q63.1-3.9 64.8-5.63 66.5-7.35 66.5-10.8L66.5-10.8 66.5-15.2Q66.5-18.65 64.8-20.38 63.1-22.1 60.3-22.1L60.3-22.1Q57.5-22.1 55.8-20.38 54.1-18.65 54.1-15.2L54.1-15.2 54.1-10.8Q54.1-7.35 55.8-5.63 57.5-3.9 60.3-3.9ZM83.74 0L78.29 0 78.29-26 83.74-26 83.74-21.7 83.99-21.7Q84.39-22.7 84.97-23.6 85.54-24.5 86.37-25.18 87.19-25.85 88.32-26.23 89.44-26.6 90.94-26.6L90.94-26.6Q93.59-26.6 95.64-25.3 97.69-24 98.64-21.3L98.64-21.3 98.79-21.3Q99.49-23.5 101.49-25.05 103.49-26.6 106.64-26.6L106.64-26.6Q110.54-26.6 112.69-23.98 114.84-21.35 114.84-16.5L114.84-16.5 114.84 0 109.39 0 109.39-15.85Q109.39-18.85 108.24-20.38 107.09-21.9 104.59-21.9L104.59-21.9Q103.54-21.9 102.59-21.63 101.64-21.35 100.92-20.8 100.19-20.25 99.74-19.4 99.29-18.55 99.29-17.45L99.29-17.45 99.29 0 93.84 0 93.84-15.85Q93.84-21.9 89.09-21.9L89.09-21.9Q88.09-21.9 87.12-21.63 86.14-21.35 85.39-20.8 84.64-20.25 84.19-19.4 83.74-18.55 83.74-17.45L83.74-17.45 83.74 0ZM150.54 0L150.54-4.3 150.29-4.3Q149.44-2 147.51-0.7 145.59 0.6 142.99 0.6L142.99 0.6Q138.04 0.6 135.34-2.98 132.64-6.55 132.64-13L132.64-13Q132.64-19.45 135.34-23.03 138.04-26.6 142.99-26.6L142.99-26.6Q145.59-26.6 147.51-25.33 149.44-24.05 150.29-21.7L150.29-21.7 150.54-21.7 150.54-37 155.99-37 155.99 0 150.54 0ZM144.64-4.1L144.64-4.1Q147.14-4.1 148.84-5.33 150.54-6.55 150.54-8.55L150.54-8.55 150.54-17.45Q150.54-19.45 148.84-20.68 147.14-21.9 144.64-21.9L144.64-21.9Q141.79-21.9 140.09-20.08 138.39-18.25 138.39-15.25L138.39-15.25 138.39-10.75Q138.39-7.75 140.09-5.93 141.79-4.1 144.64-4.1ZM185.89 0L182.84 0Q180.69 0 179.54-1.23 178.39-2.45 178.14-4.35L178.14-4.35 177.89-4.35Q177.14-1.9 175.14-0.65 173.14 0.6 170.29 0.6L170.29 0.6Q166.24 0.6 164.06-1.5 161.89-3.6 161.89-7.15L161.89-7.15Q161.89-11.05 164.71-13 167.54-14.95 172.99-14.95L172.99-14.95 177.69-14.95 177.69-17.15Q177.69-19.55 176.39-20.85 175.09-22.15 172.34-22.15L172.34-22.15Q170.04-22.15 168.59-21.15 167.14-20.15 166.14-18.6L166.14-18.6 162.89-21.55Q164.19-23.75 166.54-25.18 168.89-26.6 172.69-26.6L172.69-26.6Q177.74-26.6 180.44-24.25 183.14-21.9 183.14-17.5L183.14-17.5 183.14-4.45 185.89-4.45 185.89 0ZM171.84-3.55L171.84-3.55Q174.39-3.55 176.04-4.67 177.69-5.8 177.69-7.7L177.69-7.7 177.69-11.45 173.09-11.45Q167.44-11.45 167.44-7.95L167.44-7.95 167.44-7.05Q167.44-5.3 168.61-4.42 169.79-3.55 171.84-3.55ZM203.03 0L198.28 0Q195.43 0 193.98-1.48 192.53-2.95 192.53-5.65L192.53-5.65 192.53-21.55 188.48-21.55 188.48-26 190.68-26Q192.03-26 192.56-26.6 193.08-27.2 193.08-28.55L193.08-28.55 193.08-33.1 197.98-33.1 197.98-26 203.43-26 203.43-21.55 197.98-21.55 197.98-4.45 203.03-4.45 203.03 0ZM231.43 0L228.38 0Q226.23 0 225.08-1.23 223.93-2.45 223.68-4.35L223.68-4.35 223.43-4.35Q222.68-1.9 220.68-0.65 218.68 0.6 215.83 0.6L215.83 0.6Q211.78 0.6 209.61-1.5 207.43-3.6 207.43-7.15L207.43-7.15Q207.43-11.05 210.26-13 213.08-14.95 218.53-14.95L218.53-14.95 223.23-14.95 223.23-17.15Q223.23-19.55 221.93-20.85 220.63-22.15 217.88-22.15L217.88-22.15Q215.58-22.15 214.13-21.15 212.68-20.15 211.68-18.6L211.68-18.6 208.43-21.55Q209.73-23.75 212.08-25.18 214.43-26.6 218.23-26.6L218.23-26.6Q223.28-26.6 225.98-24.25 228.68-21.9 228.68-17.5L228.68-17.5 228.68-4.45 231.43-4.45 231.43 0ZM217.38-3.55L217.38-3.55Q219.93-3.55 221.58-4.67 223.23-5.8 223.23-7.7L223.23-7.7 223.23-11.45 218.63-11.45Q212.98-11.45 212.98-7.95L212.98-7.95 212.98-7.05Q212.98-5.3 214.16-4.42 215.33-3.55 217.38-3.55ZM260.53 0L255.78 0Q252.93 0 251.48-1.48 250.03-2.95 250.03-5.65L250.03-5.65 250.03-21.55 245.98-21.55 245.98-26 248.18-26Q249.53-26 250.05-26.6 250.58-27.2 250.58-28.55L250.58-28.55 250.58-33.1 255.48-33.1 255.48-26 260.93-26 260.93-21.55 255.48-21.55 255.48-4.45 260.53-4.45 260.53 0ZM276.82 0.6L276.82 0.6Q274.12 0.6 271.9-0.35 269.67-1.3 268.12-3.08 266.57-4.85 265.72-7.38 264.87-9.9 264.87-13L264.87-13Q264.87-16.1 265.72-18.63 266.57-21.15 268.12-22.93 269.67-24.7 271.9-25.65 274.12-26.6 276.82-26.6L276.82-26.6Q279.52-26.6 281.75-25.65 283.97-24.7 285.52-22.93 287.07-21.15 287.92-18.63 288.77-16.1 288.77-13L288.77-13Q288.77-9.9 287.92-7.38 287.07-4.85 285.52-3.08 283.97-1.3 281.75-0.35 279.52 0.6 276.82 0.6ZM276.82-3.9L276.82-3.9Q279.62-3.9 281.32-5.63 283.02-7.35 283.02-10.8L283.02-10.8 283.02-15.2Q283.02-18.65 281.32-20.38 279.62-22.1 276.82-22.1L276.82-22.1Q274.02-22.1 272.32-20.38 270.62-18.65 270.62-15.2L270.62-15.2 270.62-10.8Q270.62-7.35 272.32-5.63 274.02-3.9 276.82-3.9ZM316.67 0.6L316.67 0.6Q313.87 0.6 311.67-0.35 309.47-1.3 307.97-3.08 306.47-4.85 305.67-7.38 304.87-9.9 304.87-13L304.87-13Q304.87-16.1 305.67-18.63 306.47-21.15 307.97-22.93 309.47-24.7 311.67-25.65 313.87-26.6 316.67-26.6L316.67-26.6Q320.57-26.6 323.07-24.85 325.57-23.1 326.72-20.2L326.72-20.2 322.22-18.1Q321.67-19.9 320.29-20.98 318.92-22.05 316.67-22.05L316.67-22.05Q313.67-22.05 312.14-20.18 310.62-18.3 310.62-15.3L310.62-15.3 310.62-10.65Q310.62-7.65 312.14-5.78 313.67-3.9 316.67-3.9L316.67-3.9Q319.07-3.9 320.49-5.08 321.92-6.25 322.77-8.2L322.77-8.2 326.92-6Q325.62-2.8 323.02-1.1 320.42 0.6 316.67 0.6ZM337.57 0L332.12 0 332.12-26 337.57-26 337.57-21 337.82-21Q338.37-23 340.12-24.5 341.87-26 344.97-26L344.97-26 346.42-26 346.42-20.75 344.27-20.75Q341.02-20.75 339.29-19.7 337.57-18.65 337.57-16.6L337.57-16.6 337.57 0ZM361.21 0.6L361.21 0.6Q358.41 0.6 356.21-0.35 354.01-1.3 352.46-3.08 350.91-4.85 350.09-7.38 349.26-9.9 349.26-13L349.26-13Q349.26-16.1 350.09-18.63 350.91-21.15 352.46-22.93 354.01-24.7 356.21-25.65 358.41-26.6 361.21-26.6L361.21-26.6Q364.06-26.6 366.24-25.6 368.41-24.6 369.86-22.83 371.31-21.05 372.04-18.7 372.76-16.35 372.76-13.65L372.76-13.65 372.76-11.6 354.91-11.6 354.91-10.75Q354.91-7.75 356.69-5.83 358.46-3.9 361.76-3.9L361.76-3.9Q364.16-3.9 365.81-4.95 367.46-6 368.61-7.8L368.61-7.8 371.81-4.65Q370.36-2.25 367.61-0.83 364.86 0.6 361.21 0.6ZM361.21-22.35L361.21-22.35Q359.81-22.35 358.64-21.85 357.46-21.35 356.64-20.45 355.81-19.55 355.36-18.3 354.91-17.05 354.91-15.55L354.91-15.55 354.91-15.2 367.01-15.2 367.01-15.7Q367.01-18.7 365.46-20.53 363.91-22.35 361.21-22.35ZM400.91 0L397.86 0Q395.71 0 394.56-1.23 393.41-2.45 393.16-4.35L393.16-4.35 392.91-4.35Q392.16-1.9 390.16-0.65 388.16 0.6 385.31 0.6L385.31 0.6Q381.26 0.6 379.09-1.5 376.91-3.6 376.91-7.15L376.91-7.15Q376.91-11.05 379.74-13 382.56-14.95 388.01-14.95L388.01-14.95 392.71-14.95 392.71-17.15Q392.71-19.55 391.41-20.85 390.11-22.15 387.36-22.15L387.36-22.15Q385.06-22.15 383.61-21.15 382.16-20.15 381.16-18.6L381.16-18.6 377.91-21.55Q379.21-23.75 381.56-25.18 383.91-26.6 387.71-26.6L387.71-26.6Q392.76-26.6 395.46-24.25 398.16-21.9 398.16-17.5L398.16-17.5 398.16-4.45 400.91-4.45 400.91 0ZM386.86-3.55L386.86-3.55Q389.41-3.55 391.06-4.67 392.71-5.8 392.71-7.7L392.71-7.7 392.71-11.45 388.11-11.45Q382.46-11.45 382.46-7.95L382.46-7.95 382.46-7.05Q382.46-5.3 383.64-4.42 384.81-3.55 386.86-3.55ZM418.06 0L413.31 0Q410.46 0 409.01-1.48 407.56-2.95 407.56-5.65L407.56-5.65 407.56-21.55 403.51-21.55 403.51-26 405.71-26Q407.06-26 407.58-26.6 408.11-27.2 408.11-28.55L408.11-28.55 408.11-33.1 413.01-33.1 413.01-26 418.46-26 418.46-21.55 413.01-21.55 413.01-4.45 418.06-4.45 418.06 0ZM427.11-30.65L427.11-30.65Q425.41-30.65 424.63-31.45 423.86-32.25 423.86-33.5L423.86-33.5 423.86-34.35Q423.86-35.6 424.63-36.4 425.41-37.2 427.11-37.2L427.11-37.2Q428.81-37.2 429.56-36.4 430.31-35.6 430.31-34.35L430.31-34.35 430.31-33.5Q430.31-32.25 429.56-31.45 428.81-30.65 427.11-30.65ZM424.36 0L424.36-26 429.81-26 429.81 0 424.36 0ZM449.65 0L443.25 0 434.4-26 439.8-26 443.75-14.15 446.4-5.05 446.7-5.05 449.35-14.15 453.4-26 458.6-26 449.65 0ZM465.95-30.65L465.95-30.65Q464.25-30.65 463.48-31.45 462.7-32.25 462.7-33.5L462.7-33.5 462.7-34.35Q462.7-35.6 463.48-36.4 464.25-37.2 465.95-37.2L465.95-37.2Q467.65-37.2 468.4-36.4 469.15-35.6 469.15-34.35L469.15-34.35 469.15-33.5Q469.15-32.25 468.4-31.45 467.65-30.65 465.95-30.65ZM463.2 0L463.2-26 468.65-26 468.65 0 463.2 0ZM488.4 0L483.65 0Q480.8 0 479.35-1.48 477.9-2.95 477.9-5.65L477.9-5.65 477.9-21.55 473.85-21.55 473.85-26 476.05-26Q477.4-26 477.92-26.6 478.45-27.2 478.45-28.55L478.45-28.55 478.45-33.1 483.35-33.1 483.35-26 488.8-26 488.8-21.55 483.35-21.55 483.35-4.45 488.4-4.45 488.4 0ZM505.45-10.7L510.65-26 515.9-26 504.95 5.15Q504.5 6.45 503.92 7.38 503.35 8.3 502.57 8.88 501.8 9.45 500.7 9.73 499.6 10 498.1 10L498.1 10 494.95 10 494.95 5.55 499.35 5.55 500.85 1.15 491.4-26 496.85-26 502.05-10.7 503.55-5.05 503.8-5.05 505.45-10.7ZM521.19-6.95L521.19-6.95Q523.04-6.95 523.94-6 524.84-5.05 524.84-3.55L524.84-3.55 524.84-2.75Q524.84-0.3 523.52 2.38 522.19 5.05 519.94 6.9L519.94 6.9 515.89 6.9Q517.49 5.3 518.54 3.8 519.59 2.3 520.14 0.45L520.14 0.45Q518.84 0.2 518.19-0.68 517.54-1.55 517.54-2.75L517.54-2.75 517.54-3.55Q517.54-5.05 518.44-6 519.34-6.95 521.19-6.95ZM564.39 0L544.54 0 544.54-34.9 550.19-34.9 550.19-5 564.39-5 564.39 0ZM585.13 0L585.13-4.3 584.93-4.3Q584.58-3.35 584.01-2.45 583.43-1.55 582.56-0.88 581.68-0.2 580.46 0.2 579.23 0.6 577.63 0.6L577.63 0.6Q573.58 0.6 571.36-2 569.13-4.6 569.13-9.45L569.13-9.45 569.13-26 574.58-26 574.58-10.15Q574.58-4.1 579.58-4.1L579.58-4.1Q580.63-4.1 581.63-4.38 582.63-4.65 583.41-5.2 584.18-5.75 584.66-6.6 585.13-7.45 585.13-8.6L585.13-8.6 585.13-26 590.58-26 590.58 0 585.13 0ZM603.83 0L598.38 0 598.38-26 603.83-26 603.83-21.7 604.08-21.7Q604.48-22.7 605.06-23.6 605.63-24.5 606.46-25.18 607.28-25.85 608.41-26.23 609.53-26.6 611.03-26.6L611.03-26.6Q613.68-26.6 615.73-25.3 617.78-24 618.73-21.3L618.73-21.3 618.88-21.3Q619.58-23.5 621.58-25.05 623.58-26.6 626.73-26.6L626.73-26.6Q630.63-26.6 632.78-23.98 634.93-21.35 634.93-16.5L634.93-16.5 634.93 0 629.48 0 629.48-15.85Q629.48-18.85 628.33-20.38 627.18-21.9 624.68-21.9L624.68-21.9Q623.63-21.9 622.68-21.63 621.73-21.35 621.01-20.8 620.28-20.25 619.83-19.4 619.38-18.55 619.38-17.45L619.38-17.45 619.38 0 613.93 0 613.93-15.85Q613.93-21.9 609.18-21.9L609.18-21.9Q608.18-21.9 607.21-21.63 606.23-21.35 605.48-20.8 604.73-20.25 604.28-19.4 603.83-18.55 603.83-17.45L603.83-17.45 603.83 0ZM645.23-30.65L645.23-30.65Q643.53-30.65 642.75-31.45 641.98-32.25 641.98-33.5L641.98-33.5 641.98-34.35Q641.98-35.6 642.75-36.4 643.53-37.2 645.23-37.2L645.23-37.2Q646.93-37.2 647.68-36.4 648.43-35.6 648.43-34.35L648.43-34.35 648.43-33.5Q648.43-32.25 647.68-31.45 646.93-30.65 645.23-30.65ZM642.48 0L642.48-26 647.93-26 647.93 0 642.48 0ZM661.18 0L655.73 0 655.73-26 661.18-26 661.18-21.7 661.43-21.7Q662.28-23.8 664-25.2 665.73-26.6 668.73-26.6L668.73-26.6Q672.73-26.6 674.95-23.98 677.18-21.35 677.18-16.5L677.18-16.5 677.18 0 671.73 0 671.73-15.8Q671.73-21.9 666.83-21.9L666.83-21.9Q665.78-21.9 664.75-21.63 663.73-21.35 662.93-20.8 662.13-20.25 661.65-19.4 661.18-18.55 661.18-17.4L661.18-17.4 661.18 0ZM706.82 0L703.77 0Q701.62 0 700.47-1.23 699.32-2.45 699.07-4.35L699.07-4.35 698.82-4.35Q698.07-1.9 696.07-0.65 694.07 0.6 691.22 0.6L691.22 0.6Q687.17 0.6 685-1.5 682.82-3.6 682.82-7.15L682.82-7.15Q682.82-11.05 685.65-13 688.47-14.95 693.92-14.95L693.92-14.95 698.62-14.95 698.62-17.15Q698.62-19.55 697.32-20.85 696.02-22.15 693.27-22.15L693.27-22.15Q690.97-22.15 689.52-21.15 688.07-20.15 687.07-18.6L687.07-18.6 683.82-21.55Q685.12-23.75 687.47-25.18 689.82-26.6 693.62-26.6L693.62-26.6Q698.67-26.6 701.37-24.25 704.07-21.9 704.07-17.5L704.07-17.5 704.07-4.45 706.82-4.45 706.82 0ZM692.77-3.55L692.77-3.55Q695.32-3.55 696.97-4.67 698.62-5.8 698.62-7.7L698.62-7.7 698.62-11.45 694.02-11.45Q688.37-11.45 688.37-7.95L688.37-7.95 688.37-7.05Q688.37-5.3 689.55-4.42 690.72-3.55 692.77-3.55ZM734.82 0.6L734.82 0.6Q730.42 0.6 727.34-1 724.27-2.6 722.07-5.3L722.07-5.3 725.97-8.95Q727.82-6.7 730.04-5.55 732.27-4.4 735.12-4.4L735.12-4.4Q738.47-4.4 740.17-5.9 741.87-7.4 741.87-9.95L741.87-9.95Q741.87-12 740.67-13.2 739.47-14.4 736.42-15L736.42-15 733.32-15.55Q728.22-16.5 725.67-18.9 723.12-21.3 723.12-25.5L723.12-25.5Q723.12-27.8 723.99-29.68 724.87-31.55 726.44-32.83 728.02-34.1 730.27-34.8 732.52-35.5 735.32-35.5L735.32-35.5Q739.27-35.5 742.17-34.13 745.07-32.75 747.12-30.15L747.12-30.15 743.17-26.65Q741.82-28.4 739.87-29.45 737.92-30.5 735.02-30.5L735.02-30.5Q732.02-30.5 730.37-29.3 728.72-28.1 728.72-25.8L728.72-25.8Q728.72-23.6 730.07-22.53 731.42-21.45 734.27-20.9L734.27-20.9 737.37-20.25Q742.62-19.25 745.04-16.85 747.47-14.45 747.47-10.25L747.47-10.25Q747.47-7.8 746.62-5.8 745.77-3.8 744.14-2.38 742.52-0.95 740.17-0.18 737.82 0.6 734.82 0.6ZM765.72 0L760.97 0Q758.12 0 756.67-1.48 755.22-2.95 755.22-5.65L755.22-5.65 755.22-21.55 751.17-21.55 751.17-26 753.37-26Q754.72-26 755.24-26.6 755.77-27.2 755.77-28.55L755.77-28.55 755.77-33.1 760.67-33.1 760.67-26 766.12-26 766.12-21.55 760.67-21.55 760.67-4.45 765.72-4.45 765.72 0ZM777.46 0L772.01 0 772.01-26 777.46-26 777.46-21 777.71-21Q778.26-23 780.01-24.5 781.76-26 784.86-26L784.86-26 786.31-26 786.31-20.75 784.16-20.75Q780.91-20.75 779.19-19.7 777.46-18.65 777.46-16.6L777.46-16.6 777.46 0ZM812.86 0L809.81 0Q807.66 0 806.51-1.23 805.36-2.45 805.11-4.35L805.11-4.35 804.86-4.35Q804.11-1.9 802.11-0.65 800.11 0.6 797.26 0.6L797.26 0.6Q793.21 0.6 791.04-1.5 788.86-3.6 788.86-7.15L788.86-7.15Q788.86-11.05 791.69-13 794.51-14.95 799.96-14.95L799.96-14.95 804.66-14.95 804.66-17.15Q804.66-19.55 803.36-20.85 802.06-22.15 799.31-22.15L799.31-22.15Q797.01-22.15 795.56-21.15 794.11-20.15 793.11-18.6L793.11-18.6 789.86-21.55Q791.16-23.75 793.51-25.18 795.86-26.6 799.66-26.6L799.66-26.6Q804.71-26.6 807.41-24.25 810.11-21.9 810.11-17.5L810.11-17.5 810.11-4.45 812.86-4.45 812.86 0ZM798.81-3.55L798.81-3.55Q801.36-3.55 803.01-4.67 804.66-5.8 804.66-7.7L804.66-7.7 804.66-11.45 800.06-11.45Q794.41-11.45 794.41-7.95L794.41-7.95 794.41-7.05Q794.41-5.3 795.59-4.42 796.76-3.55 798.81-3.55ZM830.01 0L825.26 0Q822.41 0 820.96-1.48 819.51-2.95 819.51-5.65L819.51-5.65 819.51-21.55 815.46-21.55 815.46-26 817.66-26Q819.01-26 819.53-26.6 820.06-27.2 820.06-28.55L820.06-28.55 820.06-33.1 824.96-33.1 824.96-26 830.41-26 830.41-21.55 824.96-21.55 824.96-4.45 830.01-4.45 830.01 0ZM846.31 0.6L846.31 0.6Q843.51 0.6 841.31-0.35 839.11-1.3 837.56-3.08 836.01-4.85 835.18-7.38 834.36-9.9 834.36-13L834.36-13Q834.36-16.1 835.18-18.63 836.01-21.15 837.56-22.93 839.11-24.7 841.31-25.65 843.51-26.6 846.31-26.6L846.31-26.6Q849.16-26.6 851.33-25.6 853.51-24.6 854.96-22.83 856.41-21.05 857.13-18.7 857.86-16.35 857.86-13.65L857.86-13.65 857.86-11.6 840.01-11.6 840.01-10.75Q840.01-7.75 841.78-5.83 843.56-3.9 846.86-3.9L846.86-3.9Q849.26-3.9 850.91-4.95 852.56-6 853.71-7.8L853.71-7.8 856.91-4.65Q855.46-2.25 852.71-0.83 849.96 0.6 846.31 0.6ZM846.31-22.35L846.31-22.35Q844.91-22.35 843.73-21.85 842.56-21.35 841.73-20.45 840.91-19.55 840.46-18.3 840.01-17.05 840.01-15.55L840.01-15.55 840.01-15.2 852.11-15.2 852.11-15.7Q852.11-18.7 850.56-20.53 849.01-22.35 846.31-22.35ZM886.7 2.45L886.7 2.45Q886.7 6.5 883.6 8.55 880.5 10.6 873.5 10.6L873.5 10.6Q870.3 10.6 868.08 10.18 865.85 9.75 864.43 8.95 863 8.15 862.35 7 861.7 5.85 861.7 4.35L861.7 4.35Q861.7 2.2 862.88 1 864.05-0.2 866.15-0.65L866.15-0.65 866.15-1.2Q863.2-2.15 863.2-5.2L863.2-5.2Q863.2-7.2 864.55-8.28 865.9-9.35 867.8-9.8L867.8-9.8 867.8-10Q865.5-11.1 864.28-13.08 863.05-15.05 863.05-17.7L863.05-17.7Q863.05-21.7 865.73-24.15 868.4-26.6 873.4-26.6L873.4-26.6Q876.15-26.6 878.1-25.8L878.1-25.8 878.1-26.5Q878.1-28.25 878.93-29.23 879.75-30.2 881.5-30.2L881.5-30.2 885.5-30.2 885.5-25.8 880.2-25.8 880.2-24.75Q881.95-23.6 882.9-21.78 883.85-19.95 883.85-17.7L883.85-17.7Q883.85-13.75 881.15-11.33 878.45-8.9 873.45-8.9L873.45-8.9Q871.55-8.9 870.05-9.3L870.05-9.3Q869.05-8.95 868.3-8.33 867.55-7.7 867.55-6.7L867.55-6.7Q867.55-5.65 868.5-5.2 869.45-4.75 871.2-4.75L871.2-4.75 877.6-4.75Q882.4-4.75 884.55-2.83 886.7-0.9 886.7 2.45ZM881.6 3.05L881.6 3.05Q881.6 1.7 880.58 0.9 879.55 0.1 876.85 0.1L876.85 0.1 868.05 0.1Q866.25 1.15 866.25 3.1L866.25 3.1Q866.25 4.7 867.53 5.68 868.8 6.65 871.85 6.65L871.85 6.65 875.25 6.65Q881.6 6.65 881.6 3.05ZM873.45-12.85L873.45-12.85Q875.85-12.85 877.18-13.93 878.5-15 878.5-17.25L878.5-17.25 878.5-18.25Q878.5-20.5 877.18-21.58 875.85-22.65 873.45-22.65L873.45-22.65Q871.05-22.65 869.73-21.58 868.4-20.5 868.4-18.25L868.4-18.25 868.4-17.25Q868.4-15 869.73-13.93 871.05-12.85 873.45-12.85ZM901.75-10.7L906.95-26 912.2-26 901.25 5.15Q900.8 6.45 900.23 7.38 899.65 8.3 898.88 8.88 898.1 9.45 897 9.73 895.9 10 894.4 10L894.4 10 891.25 10 891.25 5.55 895.65 5.55 897.15 1.15 887.7-26 893.15-26 898.35-10.7 899.85-5.05 900.1-5.05 901.75-10.7Z" opacity="1" transform="matrix(1,0,0,1,0,0)" fill="#4b91f1" class="undefined-text-1" data-fill-palette-color="secondary" id="text-1"></path></svg></g></svg></g></svg></g></svg></g></svg></g><defs></defs></svg><rect width="359.17378894735106" height="280" fill="none" stroke="none" visibility="hidden"></rect></g></svg></g></svg>
